<?xml version="1.0" encoding="utf-8"?>
<!-- Generator: Adobe Illustrator 14.0.0, SVG Export Plug-In . SVG Version: 6.00 Build 43363)  -->
<!DOCTYPE svg PUBLIC "-//W3C//DTD SVG 1.1//EN" "http://www.w3.org/Graphics/SVG/1.1/DTD/svg11.dtd">
<svg version="1.1" id="Capa_2" xmlns="http://www.w3.org/2000/svg" xmlns:xlink="http://www.w3.org/1999/xlink" x="0px" y="0px"
	 width="590.97px" height="170.991px" viewBox="0 0 590.97 170.991" enable-background="new 0 0 590.97 170.991"
	 xml:space="preserve">
<g>
	<g>
		<path fill="#050505" d="M248.233,48.87c3.996,17.883,9.916,35.243,14.625,52.938c2.352,8.839,4.263,17.784,5.508,26.848
			c0.498,3.626,1.238,7.664,0.753,11.334c-0.364,2.748-0.816,2.174-3.373,1.365c-1.453-0.459-2.858-1.09-4.251-1.701
			c-1.351-0.591-6.649,1.538-4.727,2.381c4.424,1.938,12.743,5.13,16.588,0.003c1.949-2.599,1.792-5.425,1.506-8.538
			c-0.532-5.786-1.394-11.513-2.483-17.219c-4.466-23.395-13.161-45.737-18.35-68.963C253.706,45.87,247.887,47.319,248.233,48.87
			L248.233,48.87z"/>
	</g>
</g>
<g>
	<g>
		<path fill="#050505" d="M212.896,120.545c15.583,6.01,28.919,16.342,44.75,21.688c1.33,0.449,6.514-1.684,4.754-2.277
			c-15.801-5.336-29.176-15.682-44.75-21.688C216.345,117.765,211.12,119.86,212.896,120.545L212.896,120.545z"/>
	</g>
</g>
<g>
	<g>
		<path fill="#050505" d="M144.272,115.028c23.37-2.383,48.042-0.726,70.643,5.778c1.29,0.371,4.557-1.539,2.346-2.176
			c-23.198-6.675-48.513-8.29-72.489-5.847C142.844,112.981,141.599,115.301,144.272,115.028L144.272,115.028z"/>
	</g>
</g>
<g>
	<g>
		<path fill="#050505" d="M27.677,133.732c17.746-4.533,35.768-8.828,53.698-12.536c20.385-4.217,41.18-4.757,61.894-6.115
			c1.526-0.101,6.336-2.601,2.506-2.35c-21.228,1.393-42.418,2.102-63.327,6.304c-10.637,2.137-21.045,5.178-31.64,7.478
			c-7.892,1.714-15.792,3.408-23.617,5.407C23.796,132.787,24.295,134.597,27.677,133.732L27.677,133.732z"/>
	</g>
</g>
<g>
	<g>
		<path fill="#050505" d="M295.465,118.424c0.657,4.938,0.688,9.792,0.25,14.75c-0.075,0.848,3.534,0.006,3.845-0.829
			c2.376-6.396,5.183-14.355,12.032-17.147c2.534-1.032,0.151-1.711-1.391-1.082c-8.168,3.328-11.571,11.057-14.468,18.853
			c1.281-0.276,2.563-0.553,3.845-0.829c0.439-4.958,0.407-9.813-0.25-14.75C299.206,116.463,295.314,117.287,295.465,118.424
			L295.465,118.424z"/>
	</g>
</g>
<g>
	<g>
		<path fill="#050505" d="M312.991,119.494c-0.793,2.444-1.555,5.776,0.837,7.572c0.785,0.59,2.975-0.181,3.569-0.802
			c0.895-0.936,1.583-1.928,1.906-3.196c0.215-0.846-3.565-0.295-3.813,0.676c-0.282,1.109-0.804,1.978-1.594,2.804
			c1.19-0.268,2.38-0.534,3.569-0.802c-2.149-1.614-1.368-4.756-0.663-6.928C317.053,118.047,313.311,118.508,312.991,119.494
			L312.991,119.494z"/>
	</g>
</g>
<g>
	<g>
		<path fill="#050505" d="M315.622,113.992c-0.633,0.558-1.495,1.39-1.337,2.328c0.118,0.703,0.952,0.925,1.544,0.986
			c0.851,0.088,1.824-0.262,2.373-0.92c0.557-0.667,0.041-1.559-0.408-2.11c-0.323-0.396-1.155-0.107-1.497,0.087
			c-0.501,0.285-1.064,0.796-1.116,1.412c-0.027,0.336,0.316,0.428,0.593,0.435c0.473,0.013,0.967-0.166,1.274-0.53
			c0.17-0.2,0.228-0.599,0.45-0.73c-0.522-0.059-1.045-0.116-1.567-0.174c-0.021,0.107-0.045,0.213-0.074,0.318
			c-0.062,0.236-0.096,0.115,0.14-0.014c0.244-0.083,0.487-0.166,0.731-0.249c0.518,0.127,0.681,0.14,0.487,0.038
			c0.132,0.074,0.005-0.005-0.021-0.024c-0.14-0.11-0.277-0.192-0.457-0.218c-0.469-0.066-1.004,0.041-1.365,0.365
			c-0.288,0.258-0.231,0.635,0.186,0.693c-0.025-0.003-0.22-0.131-0.119-0.052c0.078,0.063,0.159,0.12,0.241,0.178
			c0.202,0.142,0.563,0.145,0.788,0.103c0.844-0.16,1.221-0.569,1.396-1.377c0.159-0.734-1.313-0.325-1.567-0.174
			c-0.275,0.164-0.496,0.357-0.683,0.617c-0.148,0.205-0.202,0.456-0.367,0.652c0.622-0.032,1.244-0.064,1.867-0.096
			c0.021-0.266,0.156-0.458,0.384-0.588c-0.499,0.028-0.998,0.058-1.497,0.087c0.197,0.243,0.364,0.484,0.456,0.786
			c0.018,0.056,0.027,0.114,0.036,0.173c0.025,0.158,0.014-0.08,0.006,0.069c-0.004,0.063-0.093,0.301-0.024,0.165
			c-0.021,0.039-0.047,0.074-0.072,0.109c0.115-0.155,0.046-0.053,0.002-0.014c0.038-0.034,0.212-0.115,0.078-0.062
			c0.3-0.119,0.153-0.053,0.07-0.033c0.315-0.076,0.153-0.03,0.071-0.021c0.42-0.047-0.277-0.046,0.073,0.001
			c-0.048-0.006-0.095-0.017-0.141-0.027c-0.161-0.038,0.152,0.06,0,0c-0.043-0.017-0.083-0.037-0.123-0.059
			c-0.133-0.07,0.099,0.083-0.018-0.008c-0.184-0.144-0.171-0.15-0.207-0.36c-0.014-0.084,0.063-0.367,0.141-0.507
			c0.204-0.367,0.513-0.656,0.823-0.93c0.309-0.271,0.212-0.61-0.186-0.693C316.532,113.53,315.969,113.686,315.622,113.992
			L315.622,113.992z"/>
	</g>
</g>
<g>
	<g>
		<path fill="#050505" d="M323.876,113.281c-1.516-0.039-3.394,0.148-4.493,1.346c-1.219,1.329,0.211,3.688,0.863,4.922
			c1.007,1.906,2.288,3.676,3.541,5.426c0.786,1.1,1.298,2.261,1.771,3.532c1.444,3.892-3.381,3.564-5.35,1.709
			c-0.819-0.772-4.381,0.667-3.623,1.381c3.561,3.355,14.553,2.598,12.836-4.125c-0.64-2.506-2.534-4.544-3.92-6.65
			c-0.728-1.104-1.386-2.249-1.966-3.438c-0.243-0.497-0.422-1.015-0.585-1.543c-0.561-1.811,0.912-0.746-1.533-0.81
			C322.345,115.056,325.87,113.333,323.876,113.281L323.876,113.281z"/>
	</g>
</g>
<g>
	<g>
		<path fill="#050505" d="M370.437,113.792c-3.816,2.496-4.038,9.452-0.367,12.202c4.212,3.156,5.869-3.845,7.133-6.022
			c-1.246,0.15-2.492,0.302-3.737,0.452c2.68,5.385,11.273,8.425,14.487,1.798c0.837-1.727-3.036-1.315-3.611-0.131
			c-1.785,3.682-5.813-0.29-7.013-2.702c-0.617-1.242-3.163-0.536-3.737,0.452c-0.435,0.751-0.744,1.537-1.036,2.353
			c-0.204,0.569-0.395,1.143-0.607,1.709c-0.555,1.48,1.765,0.757,0.783-0.288c-1.675-1.781-2.184-7.082,0.126-8.594
			C375.05,113.586,371.714,112.956,370.437,113.792L370.437,113.792z"/>
	</g>
</g>
<g>
	<g>
		<path fill="#050505" d="M388.86,105.104c-1.01-1.076-1.101-2.408,0.066-3.354c0.318-0.259,0.373-0.266,0.637-0.408
			c0.302-0.15,0.343-0.171,0.123-0.06c0.853-0.36-0.55,0.133,0.328-0.12c0.354-0.087,0.364-0.093,0.033-0.016
			c0.335-0.046,0.355-0.054,0.063-0.022c0.341-0.028,0.094-0.071,0.438,0.029c1.309,0.383,2.904-0.029,4.074-0.652
			c0.566-0.301,1.948-1.454,0.621-1.842c-3.332-0.975-7.337,0.318-10.169,2.105c-2.439,1.54-3.884,4.055-1.642,6.444
			C384.604,108.455,390.057,106.38,388.86,105.104L388.86,105.104z"/>
	</g>
</g>
<g>
	<g>
		<path fill="#050505" d="M400.548,129.543c1.829-2.79,4.078-6.553,7.843-6.434c4.141,0.132,8.18,2.06,12.204,2.879
			c7.625,1.554,15.42,0.248,22.607-2.474c3.839-1.453,0.244-2.608-2.111-1.717c-7.053,2.671-13.94,2.579-21.092,0.381
			c-3.06-0.94-6.368-1.92-9.61-1.778c-6.831,0.3-11.473,3.769-15.144,9.369C394.008,131.658,399.708,130.825,400.548,129.543
			L400.548,129.543z"/>
	</g>
</g>
<g>
	<g>
		<path fill="#050505" d="M355.483,21.208c-0.841,21.286-5.423,42.208-6.5,63.5c-1.089,21.524-1.023,42.102,7.017,62.475
			c0.902,2.288,6.642,0.593,5.795-1.553c-7.854-19.903-8.385-40.433-6.983-61.525c1.411-21.238,5.66-42.243,6.5-63.5
			C361.417,17.916,355.571,18.989,355.483,21.208L355.483,21.208z"/>
	</g>
</g>
<g>
	<g>
		<path fill="#050505" d="M27.757,134.373c58.821-18.679,120.534-25.977,181.844-30.647c30.272-2.307,60.593-3.896,90.895-5.729
			c30.119-1.821,60.209-4.099,90.334-5.828c57.705-3.313,116.313-4.741,173.405,5.781c1.796,0.331,3.792-0.163,5.41-0.954
			c0.575-0.281,2.721-1.801,0.914-2.134c-59.947-11.049-121.404-9.21-181.973-5.64c-60.383,3.559-120.876,6.947-181.179,11.657
			c-61.585,4.811-123.313,12.807-182.371,31.56c-0.432,0.137-3.462,1.461-2.274,2.308C24.049,135.663,26.466,134.783,27.757,134.373
			L27.757,134.373z"/>
	</g>
</g>
<g>
	<g>
		<path fill="#050505" d="M370.328,118.081c0.68-0.227,1.182-0.613,1.546-1.233c0.312-0.533,0.473-1.208,0.917-1.647
			c-0.578-0.137-1.157-0.274-1.735-0.411c-0.449,1.446-1.644,2.463-2.25,3.833c-0.414,0.934,1.101,0.944,1.568,0.569
			c1.242-0.999,1.98-2.492,2.336-4.022c0.223-0.958-1.757-0.729-1.959,0.141c-0.251,1.08-0.782,2.27-1.664,2.978
			c0.523,0.189,1.046,0.38,1.568,0.569c0.607-1.371,1.799-2.379,2.25-3.833c0.339-1.091-1.247-0.895-1.735-0.411
			c-0.307,0.303-0.506,0.694-0.688,1.08c-0.099,0.209-0.192,0.42-0.295,0.627c-0.053,0.106-0.332,0.449-0.221,0.412
			c-0.378,0.126-0.916,0.446-0.785,0.934C369.303,118.121,369.95,118.206,370.328,118.081L370.328,118.081z"/>
	</g>
</g>
</svg>
