<?xml version="1.0" encoding="utf-8"?>
<!-- Generator: Adobe Illustrator 14.0.0, SVG Export Plug-In . SVG Version: 6.00 Build 43363)  -->
<!DOCTYPE svg PUBLIC "-//W3C//DTD SVG 1.1//EN" "http://www.w3.org/Graphics/SVG/1.1/DTD/svg11.dtd">
<svg version="1.1" id="Capa_2" xmlns="http://www.w3.org/2000/svg" xmlns:xlink="http://www.w3.org/1999/xlink" x="0px" y="0px"
	 width="172px" height="121px" viewBox="0 0 172 121" enable-background="new 0 0 172 121" xml:space="preserve">
<g>
	<g>
		<path fill="#050505" d="M89.237,22.377c6.382,28.565,17.807,55.951,20.75,85.25c0.22,2.18,9.946,0.264,9.66-2.588
			c-2.944-29.299-14.369-56.685-20.75-85.25C98.358,17.377,88.661,19.793,89.237,22.377L89.237,22.377z"/>
	</g>
</g>
<g>
	<g>
		<path fill="#050505" d="M55.949,85.223c17.794,6.981,33.09,18.63,51.271,24.841c2.785,0.951,6.976-0.51,9.46-1.701
			c1.353-0.649,4.466-2.646,1.632-3.613c-18.136-6.196-33.479-17.861-51.272-24.841c-2.671-1.048-7.076,0.559-9.459,1.701
			C56.113,82.313,53.218,84.151,55.949,85.223L55.949,85.223z"/>
	</g>
</g>
<g>
	<g>
		<path fill="#050505" d="M12.934,86.802c2.659-0.303,5.732-0.414,8.186-1.609c1.689-0.823,3.626-1.96,3.464-4.093
			c-0.001-0.014-0.002-0.028-0.003-0.043c-0.078-1.02-1.53-1.495-2.277-1.71c-2.932-0.843-7.078,0.258-9.228,2.272
			c-0.823,0.771-1.808,2.363-0.692,3.378c1.605,1.46,4.197,1.395,6.221,1.574c4.408,0.394,8.85,0.224,13.264,0.075
			c9.4-0.316,19.421-1.431,28.614,1.056c2.653,0.718,6.214-0.357,8.196-2.196c1.879-1.742,1.197-3.691-1.16-4.329
			c-8.153-2.206-16.83-1.88-25.191-1.605c-4.347,0.143-8.689,0.347-13.039,0.379c-1.637,0.012-3.271-0.043-4.904-0.134
			c-2.712-0.149-3.055-1.075-1.26,0.558c-0.23,1.126-0.461,2.252-0.692,3.378c0.017-0.015,0.033-0.03,0.05-0.046
			c-1.286,0.665-2.572,1.33-3.858,1.995c-1.01,0.274-2.32,0.47-3.356,0.171c-0.759-0.569-1.519-1.14-2.277-1.71
			c0.001,0.015,0.002,0.029,0.003,0.044c1.155-1.364,2.31-2.729,3.464-4.093c2.951-1.437-0.528-0.212-2.023-0.042
			c-2.228,0.253-5.984,1.471-6.556,4.049C7.29,86.766,11.322,86.984,12.934,86.802L12.934,86.802z"/>
	</g>
</g>
<g>
	<g>
		<path fill="#050505" d="M19.2,84.26c16.913-3.708,33.799-7.522,50.663-11.447c2.052-0.478,4.104-0.954,6.158-1.424
			c0.932-0.214,1.866-0.424,2.799-0.633c-3.476,0.776-0.492,0.112,0.292-0.054c1.32-0.278,2.645-0.536,3.975-0.769
			c0.576-0.101,1.153-0.19,1.731-0.276c2.396-0.355-1.496,0.163-0.419,0.04c5.897-0.675,11.897-0.586,17.821-0.779
			c16.342-0.534,32.666-1.544,48.977-2.665c4.241-0.292,9.766-1.596,12.906-4.696c3.178-3.14-2.773-3.605-4.646-3.478
			c-16.311,1.122-32.634,2.118-48.976,2.666c-5.931,0.198-11.915,0.137-17.821,0.779c-7.308,0.794-14.437,2.512-21.588,4.168
			c-16.117,3.731-32.238,7.438-48.397,10.981c-3.306,0.726-9.641,1.843-11.279,5.433C9.877,85.425,18.094,84.502,19.2,84.26
			L19.2,84.26z"/>
	</g>
</g>
</svg>
