<?xml version="1.0" encoding="utf-8"?>
<!-- Generator: Adobe Illustrator 14.0.0, SVG Export Plug-In . SVG Version: 6.00 Build 43363)  -->
<!DOCTYPE svg PUBLIC "-//W3C//DTD SVG 1.1//EN" "http://www.w3.org/Graphics/SVG/1.1/DTD/svg11.dtd">
<svg version="1.1" id="Capa_1" xmlns="http://www.w3.org/2000/svg" xmlns:xlink="http://www.w3.org/1999/xlink" x="0px" y="0px"
	 width="365.306px" height="333.674px" viewBox="0 0 365.306 333.674" enable-background="new 0 0 365.306 333.674"
	 xml:space="preserve">
<g>
	<g>
		<g>
			<path fill="#202020" d="M113.852,186.084c0.451,1.418,0.439-0.918,0.458,0.889C113.994,186.844,113.729,186.606,113.852,186.084z
				"/>
			<path fill="#202020" d="M188.684,290.064c-1.692-4.702-0.104-10.906-1.507-16.005c-0.102-0.599,1.008,0.099,0.711-1.247
				c-1.777-4.886-1.505-12.751-1.062-18.913l0.318,0.339c0.091-1.173-0.978-2.487-0.966-3.721c0.186-0.028,0.304,0.364,0.535,0.056
				c-0.596-0.249-0.496-2.178-0.969-2.65c0.168-0.504,0.621-0.505,0.805-1.152l-0.717-0.631c-1.73-1.779-0.395-4.721-1.458-7.285
				c0.162,0.112,0.305,0.362,0.429,0.138c-1.331-4.154-1.783-9.481-2.485-14.218c0.242,0.17,0.67,0.308,0.904,0.008
				c-0.697-0.176-0.991-1.633-1.232-2.899c0.648-0.63-0.819-2.14-0.56-3.67l0.163,0.118c-0.832-1.055,0.301-1.673-0.623-2.515
				l0.509-0.742c-1.009-0.426,0.423-1.638-0.126-2.524l-0.2,0.041c-0.286-0.853,0.184-1.329-0.025-2.124l0.108-0.081
				c-0.356-1.868,0.13-2.983-0.635-2.907c0.581-0.683,0.379,1.812,1.22,0.739c-1.15-6.116-1.372-12.499-1.614-18.716
				c0.276-0.717,0.362-1.17,0.647-1.339c-0.177-0.615-0.22-2.334-0.632-2.885c0.023,0.209,0.38-0.414,0.407-0.745
				c0.253-1.139-0.884-1.208-0.581-2.461c0.22,0.488,0.474,0.649,0.754,0.474c-0.634-1.039-0.587-2.459-0.813-3.706
				c0.134,0.19,0.22,0.49,0.46,0.437c-0.717-1.351,0.074-2.502-0.389-3.689l0.456,0.435c0.485-1.947-0.944-0.544-0.671-2.223
				c0.152,0.397,0.321,0.251,0.503,0.318c-0.849-1.537-0.652-4.065-0.969-5.611c0.063,0.091,0.185,0.063,0.185,0.063
				c-0.147-1.69,0.055-3.469-0.348-5.321c0.177-0.683,1.092,0.191,0.872-1.597c-0.888,0.092-0.463-3.03-1.437-1.944
				c0.097-1.533,0.354-3.967,0.019-4.976c0.359,0.676,1.063-0.783,1.179,0.488l0.51-0.982c0.368,0.131-0.092,0.995,0.357,0.673
				c-0.053-0.637-0.473-2.483-0.356-3.059c-0.594-1.163-1.658-2.206-1.849-4.11c0.384,0.884,0.96-0.553,1.138,0.05l-1.812-2.589
				c-0.07-0.632,0.699-0.17,0.42-1.077c-0.231,0.058-0.401-0.335-0.608-0.604c0.092-0.246-0.365-2.625,0.497-2.948
				c0.324-0.301,0.237,1.024,0.512,0.304c-0.071-1.171-0.376-1.208-0.455-2.379l0.116-0.03c0.088-0.781-0.498-2.258-0.936-1.389
				c0.004,0.541,0.515-0.236,0.304,0.577c-0.544-0.514-0.739-1.868-0.842-3.034c0.167,0.39,0.398,0.326,0.657,0.47
				c-0.803-1.527-1.143-3.172-1.559-4.902c-0.418,0.004,0.805,0.596,0.604,0.871c0.405-2.292-1.136-4.573-0.498-6.503
				c0.102,0.299-0.575,0.216-0.46,0.185c-0.054-1.082,0.553-1.088,0.264-1.77c0.345-0.104-0.201-0.874-0.378-1.586
				c-0.291-0.348,0.154-0.205,0.253,0.42c-0.392-0.982-1.31-4.949-1.129-7.318c-0.227,0.073-1.033-1.315-1.074-1.848l0.57,0.138
				c0.264-0.528-0.271-1.776,0.183-1.928c-0.803-1.051,1.114,4.311,0.411,2.837c0.403-0.458-1.137-2.033-0.354-1.798
				c-0.156-1.067-0.896-2.019-0.517-3.11c-0.051,0.307,0.864,0.762,0.715-0.097c-0.335-1.503-0.327-0.394-0.704-1.596l-0.346-0.736
				c-0.536,0.031-0.145-1.361-0.645-0.708c0.405-0.254-0.62-2.148,0.28-2.137l0.723,0.099c-0.156-0.647-0.898-0.953-1.283-1.414
				c0.049-0.097,0.16-0.292,0.276-0.278c-1.076,0.077-0.149-1.579-1.111-2.204c0.092-1.422-0.655-3.447-0.133-4.218
				c-0.526-0.982-1.09-1.852-1.105-3.087c0.146,0.216,0.24,0.533,0.479,0.552c0.158-0.813-0.154-0.939-0.46-1.585
				c0.199,0.117,0.248-1.615,0.412-2.528c-0.564-0.956-1.037-0.467-1.405-0.488c0.793-1.189-1.372-2.725-0.734-4.134
				c0.228,0.318,0.871,1.37,0.917,0.446c0.774-1.208-1.183-1.708-1.168-3.321l-0.732,0.601c0.322-0.811-1.145-2.044-0.245-2.141
				c-0.45-0.409-0.249-1.84-1.016-1.427c0.017-2.683-2.264-5.751-1.394-7.717c-0.259-0.296-0.434-1.206-0.781-0.879
				c-0.241,0.733,0.608,0.682,0.381,1.005c-0.136-0.3-0.38-0.287-0.503-0.28c-0.085-0.809-0.241-1.419,0.681-0.958
				c-0.115-1.845-1.965-1.222-2.437-3.409c0.366-0.042,0.423-0.241,0.117-0.798l-1.032-0.847c-0.422-1.319,0.412-1.066,0.939-1.35
				c-0.382-0.661-0.849-1.437-1.383-1.526l0.218-1.165c-0.164,0.871-0.572-0.388-0.925-0.548l0.318,0.198
				c0.14-0.242-0.481-0.851-0.784-1.153c-0.24,0.303,0.115,1.07,0.285,1.493c-0.429-0.15-0.699-0.637-1.217-0.838
				c0.557-0.195-0.283-1.229-0.632-1.585c-0.324-0.53-0.84-0.132-0.939-0.267c0.214-0.254-0.624-0.702-0.01-0.72
				c0.208,0.083,0.108,0.558,0.528,0.615c-0.117-0.415,0.312-0.87-0.581-1.08c-0.652-0.126-0.622,0.99-1.217,0.064
				c0.294,0.047,0.473-0.112,0.78-0.144l-0.67-0.874l-0.309,0.444c-0.047-0.168,0.055-0.174,0.037-0.259
				c-0.519,0.378-1.377-0.482-1.728,0.188c-0.371-0.071-0.769-0.55-1.213-0.556l0.081-0.048c-0.52-0.391-1.294,0.065-1.621,0.489
				l-0.01-0.117c-0.303-0.011-1,0.459-1.229,0.861c-0.922,0.009-1.2-1.648-1.767-0.542c-0.847,0.484-0.678,1.674-0.186,1.697
				c-1.588,0.698-2.45,2.69-4.165,3.358c-0.02,0.335,0.192,0.309-0.078,0.78c-1.93,1.874-3.036,4.792-5.118,6.02
				c0.268-0.783-0.414-0.345-0.675-0.499c0.016,0.81-0.862,0.395-0.308,1.046c0.442,0.213,0.593,0.385,1.188-0.147
				c-0.693,1.512-2.014,3.627-2.858,4.203c0.427-0.281,0.371,0.102,0.312,0.484c-0.6-0.495-1.34,0.496-1.55,1.45l0.345,0.344
				l-0.717,0.292c-0.044,0.385,0.668,0.821-0.175,1.404c-0.185-0.045-0.374-0.087-0.57,0c-0.112,1.04-0.177,2.529-1.006,3.274
				l-0.995,0.454c-0.135,0.435-0.105,1.293,0.425,0.678c-1.181,1.403-1.708,2.433-2.493,2.689
				c-0.035,3.409-1.778,7.492-3.205,10.778l-0.286-0.231c-0.661,0.773,0.385,0.693-0.089,1.225c-0.196-0.413-0.95,0.414-1.051-0.44
				c-0.862,1.149-0.078,1.88-0.249,2.769c0.383,0.292-0.021-0.777,0.465-0.406c0.102,0.2-1.02,1.649-0.426,2.091
				c-0.374,0.228-0.765-0.199-0.968-0.472l0.035,0.905c-1.123,0.695-0.565-2.709-1.88-2.041l-0.167,0.774
				c-0.944,0.459-0.06-2.244-0.973-0.468c0.03,0.931,0.737,1.954,1.286,1.345c-0.42,1.731,1.287,1.327,0.623,3.084
				c-0.554,0.354,0.393-1.457-0.267-1.302c-0.814,0.661-0.291,1.788-0.707,2.474c0.514-0.75,0.961,0.173,0.915,0.742
				c-0.602,0.8-0.442-0.788-0.92,0.471c0.307,0.335,0.268,1.578,0.827,0.658c0.8,0.543-0.752,1.62-0.019,1.727
				c-0.695,0.158-1.374-0.81-1.794-0.227c0.65-0.126,0.508,1.982,1.547,1.356c-0.274,0.55-0.766,0.528-1.065,0.038
				c-0.522,0.768,0.761,2.209-0.498,2.277l0.574,0.391c-0.247,0.228-0.461,0.575-0.865,0.948c-0.13,0.735,0.466,2.505-0.468,2.29
				c0.058,0.25-0.25,1.926,0.502,1.377c0.566-0.98-0.282-1.275,0.694-1.717c-0.837,0.624-0.151,1.519,0.001,2.157l-0.38,0.043
				c0.091,0.381-0.112,1.197,0.251,1.481c-0.168-0.308-0.439-0.201-0.569,0.071l0.5,0.46c0.064,1.499-1.029,0.202-1.076,1.647
				l-0.272-1.144c0.058,0.251-0.535,0.661-0.462,1.369c0.467,0.337,1.01,0.919,1.375,1.201c0.116,0.833-0.622,0.281-0.205,1.143
				l-0.475-1.119c-0.146-0.181-0.934,0.582-1.063,1.66c0.085,0.711,0.677,1.871,1.1,0.827c-0.062,0.539-0.474,1.252-0.789,0.777
				c0.014,1.243,0.57-0.09,0.746,1.001c-0.396,0.387-1.036,1.67-1.627,2.422l-0.722-1.206l-0.097,0.732
				c-0.568-1.033-0.577,0.421-1.234-0.204c-0.172,0.491,0,1.13,0.13,1.639c1.33-1.333,1.383,1.827,2.486,1.517
				c0.068,2.033-2.697,0.978-1.268,3.249c0.311-0.314,1.01,0.753,0.836-0.541c-0.244,1.234,0.97,0.955,0.381,2.378
				c-0.32-1.131-1.19,1.065-1.656-0.571c0.336,0.139,0.355-0.854,0.285-1.105c-0.459,0.473-1.052-0.215-1.186,1.066
				c0.013,0.793-0.062,1.869,0.505,1.764c0.604,0.026,0.045-1.199,0.608-0.64c0.071,1.574-0.87,1.753,0.147,2.492
				c0-0.99,0.645-1.178,1.059-1.121l0.152,1.159l-0.382-0.256c-0.45,1.801,0.681,0.604,0.418,2.359l-0.867,0.765
				c-0.647-0.478,0.53-2.549-0.612-2.33c-0.144,1.15,0.383,1.579,0.006,2.642l-0.154-0.83c-0.077,0.409-1.585,0.707-0.834,2.422
				c0.277,0.875,0.379,0.253,0.796,0.305c-0.001,1.861,0.378,2.441,0.37,3.635c-0.802-0.294-0.187,2.101-0.953,0.737
				c0.491-0.579,0.643-3.255-0.089-3.967c-1.013,0.607,0.238-1.448-0.711-1.919c-0.128,1.489-1.072,1.348-1.71,1.545
				c-0.074,0.413,0.162,0.835,0.24,1.089c0.572,0.216,0.604-0.328,1.209-0.317c-0.286,1.655-0.057,3.283,0.479,4.229
				c-0.318,0.54-0.895,0.334-0.92-0.329c0.078,1.993-0.129,4.105-0.342,5.985c0.994-1.187,0.164,2.104,0.985,1.296
				c0.245-1,0.951-1.838,1.364-1.271c-0.079,0.623-0.418-0.034-0.63,0.221c0.499,0.812-0.875,1.218-0.073,2.023
				c-0.257-1.807-1.157-0.379-1.897-0.728c0.384,1.318-0.533-0.07-0.57,1.229c0.382,1.313,0.725,2.915,0.874,4.36
				c-0.752,1.823,0.074,4.597,0.122,6.208c-0.358,0.863-1.222,0.321-1.321,1.25c0.078,1.083,0.867-0.843,0.572,0.775l-0.177-0.146
				c0.222,0.471-0.407,2.98,0.835,3.363l-0.944-0.427c-0.064,0.306,0.153,0.568,0.277,0.807c-0.298,0.035-0.535,0.405-0.779-0.067
				c-0.535,1.043,0.302,2.075,0.431,3.144l0.475-0.745c0.577,1.789,0.206,3.067,0.663,4.801l-0.534,0.024l0.466,1.002
				c-0.54-0.18-0.754,0.852-0.21,1.327l-1.704-2.549c0.2-0.813,0.757,0.748,1.207,0.189c0.396-0.475,0.015-2.082-0.531-2.289
				c0.033,0.637,0.153,0.652,0.414,1.115c-0.704,0.306-0.814-0.656-1.374-1.075c0.078,0.33-0.077,0.833,0.166,0.875
				c-0.463-0.608-0.595-1.268-0.711-2.364c0.36,0.71,0.417-0.452,0.655-0.193c-0.656-0.017-0.959-1.05-0.908-2.425
				c0.639-1.023-0.646-2.513-0.542-4.108c0.697,0.606,1.272,1.386,1.593,2.315c0.274-1.001-0.081-1.089,0.195-2.089
				c-0.517-0.448-1.295-0.748-1.662-2.025l0.485-0.089c-0.279-1.154-1-1.133-0.898-2.626c0.145-2.558,0.205-5.173,0.263-7.116
				l0.485-0.065c-1.039-1.097-0.289-3.601-0.714-5.069c0.55-2.451-0.205-5.392,0.691-6.61c-0.083-4.371-0.156-8.213,0.482-12.69
				l0.625,0.826c-0.434-0.855,0.46-0.482,0.438-1.281c-0.656,0.85-0.616-1.167-0.989-1.77c0.741-1.943,0.479-4.567,0.19-6.405
				l0.492-0.009c-0.677-1.903,0.4-3.94,0.859-6.14c0.237-0.227,0.748-0.563,0.792-1.231c-0.599-1.317-0.461-1.941-0.671-3.785
				c0.211-1.291,0.729-3.357,1.258-4.613c-0.576-5.011,2.322-10.353,3.355-15.11l0.666-0.142c0.656-5.129,4.162-10.335,5.469-14.439
				l0.702,0.798c0.833-1.077,1.125-2.843,0.347-2.853c0.858-1.072,1.123-3.218,2.238-3.597c0.796-1.133,0.417-1.697,0.861-2.772
				c1.703-2.232,2.136-3.159,3.414-5.484l-0.405,0.521c0.026,0.359,0.364,0.601,0.77,0.084c0.273-0.987,2.214-2.871,0.697-2.711
				c2.088-1.962,3.509-5.776,6.191-7.293c-0.401-0.039,0.056-0.614,0.114-0.989c1.896-1.922,4.407-3.293,6.268-4.886
				c0.478-0.097-0.368,0.848,0.667,0.276c0.559-0.457-0.216-0.393,0.56-0.937c4.499-3.343,12.15-0.404,14.653,2.902
				c6.051,5.338,7.348,12.364,9.642,17.912l-0.245,0.01c1.613,1.64,0.563,4.86,2.356,6.021c-0.074,0.528,0.431,1.804-0.106,1.586
				c1.124,1.385,0.681,4.536,1.994,6.623c-0.031-0.214-0.107-0.325-0.265-0.542c0.039,2.433,1.316,4.29,1.337,6.847
				c-0.148-0.227-0.31-0.664-0.554-0.687c-0.251,1.038,1.417,2.037,0.415,2.785c0.118,0.54,0.633,0.273,0.534-0.053
				c0.704,5.433,2.329,11.055,3.355,16.659c-0.162,4.122-1.856,0.49-0.62,3.56c-0.184,0.287,0.452,0.137,0.224,0.207
				c0.469,1.193-1.012,2.06-0.318,2.841c0.645-0.428,0.459,0.524,0.874,0.504c-0.208,2.516-0.783,3.067-0.069,4.959l-0.378-0.111
				c1.256,2.181,0.956,4.873,2.263,6.705c1.195,12.586,2.251,24.642,2.736,36.862c0.118,12.089,0.901,23.837,0.976,35.977
				c-0.801,2.774-0.736,3.278-0.184,6.338c-0.162-0.121-0.209-0.313-0.343-0.099c0.795,0.121,0.193,2.185,0.958,2.443
				c0.055,4.459,0.545,8.556,0.98,13.158c-0.145-0.72-0.815-1.032-0.691-0.171l0.578,0.86l-0.209,0.167
				c0.167,0.583,0.608,1.191,0.809,0.56c1.696,11.491,1.508,23.082,2.749,34.578c-0.043,2.749,0.496,6.646,0.899,9.617
				c-0.391,8.941-1.091,16.928-0.516,26C191.154,295.015,189.129,293.759,188.684,290.064z"/>
			<path fill="#202020" d="M113.417,184.349c0.322-0.392,0.33-1.437,1.007-0.729C114.083,183.786,113.784,184.385,113.417,184.349z"
				/>
			<path fill="#202020" d="M115.652,157.013c-0.116-0.038,0.17-0.38,0.236-0.464c0.021,0.333,0.342,0.649,0.131,0.91
				C116.001,157.12,115.812,157.168,115.652,157.013z"/>
			<path fill="#202020" d="M116.136,150.141c0.345,0.122,0.543,1.603,0.549,2.47L116.136,150.141z"/>
			<path fill="#202020" d="M117.965,143.834c0.333-0.529,0.484-0.365,0.423,0.374C118.199,144.25,118.123,143.998,117.965,143.834z"
				/>
			<path fill="#202020" d="M117.202,143.323c0.028-0.532,0.252-0.781,0.471-1.023C117.371,142.296,117.774,143.543,117.202,143.323z
				"/>
			<path fill="#202020" d="M119.531,129.566c0.012-0.334-0.191-1.088,0.232-1.351C119.452,128.53,120.011,129.882,119.531,129.566z"
				/>
			<path fill="#202020" d="M119.808,123.081c0.051-0.204,0.125-0.28,0.062-0.534c0.208-0.359,0.408,0.077,0.398,0.401
				L119.808,123.081z"/>
			<polygon fill="#202020" points="168.36,82.973 168,82.35 168.364,82.355 			"/>
			<path fill="#202020" d="M176.104,134.004c0.271,0.685-0.292,0.507-0.334,0.628C175.686,134.003,176.217,134.838,176.104,134.004z
				"/>
			<polygon fill="#202020" points="179.1,161.982 179.083,161.767 179.805,161.818 			"/>
		</g>
	</g>
</g>
<g>
	<g>
		<g>
			<path fill="#202020" d="M182.375,170.775c0.163,1,0.612-0.54,0.274,0.653C182.365,171.294,182.151,171.1,182.375,170.775z"/>
			<path fill="#202020" d="M234.146,253c-1.218-3.436,0.753-7.524-0.453-11.099c-0.083-0.411,1.016,0.085,0.75-0.847
				c-1.554-3.372-1.095-8.748-0.489-13.033l0.309,0.222c0.119-0.813-0.916-1.68-0.875-2.531c0.186-0.025,0.294,0.24,0.532,0.019
				c-0.588-0.15-0.425-1.482-0.883-1.792c0.184-0.354,0.635-0.37,0.838-0.822l-0.695-0.41c-1.678-1.171-0.239-3.238-1.184-4.979
				c0.157,0.075,0.291,0.244,0.422,0.087c-1.267-2.827-1.147-6.532-1.683-9.786c0.233,0.12,0.653,0.221,0.902,0.018
				c-0.687-0.131-0.906-1.135-1.082-2.009c0.679-0.424-0.709-1.481-0.373-2.529l0.157,0.083c-0.772-0.735,0.38-1.145-0.514-1.733
				l0.535-0.503c-0.992-0.302,0.482-1.119-0.036-1.732l-0.201,0.026c-0.254-0.587,0.231-0.91,0.051-1.457l0.111-0.056
				c-0.289-1.282,0.237-2.048-0.53-1.995c0.604-0.469,0.314,1.243,1.192,0.508c-0.923-4.219-0.853-8.602-0.916-12.87
				c0.302-0.489,0.391-0.8,0.683-0.913c-0.164-0.424-0.167-1.604-0.566-1.986c0.019,0.144,0.39-0.281,0.424-0.508
				c0.279-0.779-0.856-0.837-0.524-1.694c0.209,0.336,0.459,0.449,0.743,0.331c-0.611-0.719-0.529-1.693-0.734-2.551
				c0.131,0.132,0.211,0.338,0.452,0.303c-0.691-0.933,0.121-1.717-0.318-2.535l0.447,0.301c0.522-1.333-0.933-0.379-0.629-1.53
				c0.145,0.273,0.316,0.174,0.498,0.221c-0.82-1.06-0.575-2.794-0.863-3.858c0.062,0.063,0.184,0.044,0.184,0.044
				c-0.116-1.162,0.12-2.382-0.248-3.655c0.19-0.469,1.085,0.136,0.904-1.093c-0.89,0.058-0.408-2.083-1.401-1.342
				c0.124-1.052,0.425-2.722,0.109-3.416c0.347,0.466,1.077-0.533,1.17,0.34l0.528-0.672c0.365,0.091-0.11,0.683,0.345,0.463
				c-0.046-0.438-0.424-1.708-0.287-2.102c-0.563-0.801-1.597-1.523-1.736-2.833c0.359,0.609,0.975-0.375,1.136,0.041l-1.741-1.789
				c-0.051-0.435,0.699-0.112,0.454-0.738c-0.234,0.038-0.387-0.233-0.583-0.419c0.104-0.168-0.286-1.806,0.586-2.022
				c0.333-0.204,0.207,0.706,0.503,0.212c-0.037-0.805-0.341-0.832-0.385-1.637l0.117-0.02c0.111-0.536-0.431-1.554-0.895-0.96
				c-0.012,0.371,0.522-0.158,0.287,0.398c-0.522-0.357-0.7-1.287-0.737-2.091c0.148,0.269,0.381,0.227,0.634,0.328
				c-0.729-1.056-0.989-2.192-1.322-3.386c-0.417-0.001,0.775,0.418,0.562,0.605c0.518-1.573-0.933-3.157-0.147-4.482
				c0.086,0.207-0.585,0.142-0.469,0.121c0.003-0.744,0.609-0.741,0.356-1.213c0.351-0.068-0.154-0.604-0.293-1.095
				c-0.271-0.244,0.165-0.139,0.23,0.292c-0.342-0.68-1.065-3.419-0.654-5.055c-0.232,0.047-0.921-0.924-0.919-1.293l0.557,0.105
				c0.306-0.36-0.126-1.23,0.337-1.327c-0.714-0.739,0.76,2.993,0.18,1.964c0.438-0.309-0.967-1.421-0.207-1.246
				c-0.068-0.739-0.729-1.409-0.263-2.154c-0.076,0.21,0.798,0.542,0.72-0.053c-0.166-1.047-0.281-0.279-0.518-1.12l-0.27-0.516
				c-0.536,0.01-0.023-0.941-0.579-0.502c0.426-0.167-0.426-1.495,0.467-1.466l0.71,0.084c-0.098-0.449-0.809-0.677-1.15-1.003
				c0.057-0.066,0.185-0.198,0.299-0.185c-1.071,0.027-0.021-1.089-0.897-1.546c0.271-0.984-0.211-2.409,0.403-2.929
				c-0.396-0.695-0.843-1.315-0.702-2.171c0.117,0.154,0.17,0.376,0.403,0.397c0.259-0.559-0.034-0.655-0.254-1.112
				c0.167,0.099,0.519-1.142,0.826-1.727c-0.429-0.661-0.96-0.331-1.319-0.351c0.929-0.803-0.958-1.846-0.205-2.794
				c0.191,0.208,0.718,0.914,0.858,0.286c0.896-0.847-1.02-1.133-0.75-2.25l-0.793,0.444c0.421-0.574-0.866-1.338,0.025-1.457
				c-0.389-0.253-0.021-1.258-0.814-0.917c0.218-1.836-1.642-3.694-0.64-5.198c-0.228-0.168-0.332-0.782-0.685-0.493
				c-0.281,0.552,0.532,0.38,0.293,0.643c-0.109-0.188-0.343-0.14-0.46-0.116c-0.022-0.548-0.13-0.956,0.715-0.784
				c0.025-1.315-1.819-0.488-2.144-1.922c0.335-0.1,0.422-0.274,0.158-0.614l-0.924-0.394c-0.335-0.868,0.427-0.872,0.93-1.196
				c-0.333-0.398-0.683-0.913-1.171-0.862l0.279-0.938c-0.193,0.687-0.523-0.146-0.797-0.233l0.261,0.101
				c0.15-0.223-0.335-0.596-0.574-0.784c-0.246,0.288-0.01,0.841,0.096,1.153c-0.365-0.042-0.554-0.387-0.996-0.456
				c0.53-0.277-0.153-0.897-0.377-1.203c-0.202-0.415-0.719-0.017-0.788-0.122c0.219-0.221-0.438-0.556,0.1-0.606
				c0.172,0.045,0.012,0.458,0.375,0.459c-0.031-0.359,0.39-0.727-0.322-0.884c-0.532-0.103-0.734,0.9-1.076,0.066
				c0.256,0.042,0.447-0.1,0.72-0.131l-0.377-0.778l-0.38,0.375c0.013-0.176,0.097-0.16,0.108-0.247
				c-0.542,0.267-1.046-0.608-1.554-0.213c-0.325-0.18-0.44-0.729-0.713-0.989l0.083-0.002c-0.198-0.542-0.858-0.581-1.316-0.429
				l0.066-0.098c-0.182-0.172-0.737-0.251-1.095-0.059c-0.39-0.576,0.433-2.018-0.419-1.53c-0.639-0.141-1.11,0.748-0.946,1.127
				c-0.976-0.49-1.996,0.341-2.998-0.279c-0.1,0.241,0.012,0.332-0.238,0.534c-1.501,0.138-2.52,1.629-4.125,1.584
				c0.251-0.46-0.291-0.452-0.485-0.684c-0.037,0.622-0.72-0.105-0.314,0.637c0.335,0.349,0.452,0.54,0.936,0.437
				c-0.606,0.767-1.645,1.795-2.353,1.932c0.356-0.054,0.314,0.207,0.275,0.461c-0.524-0.583-1.135-0.09-1.273,0.559l0.315,0.356
				l-0.614-0.003c-0.019,0.275,0.623,0.773-0.072,0.971c-0.166-0.081-0.334-0.162-0.504-0.15c-0.025,0.75,0.02,1.762-0.643,2.132
				l-0.863,0.121c-0.083,0.291,0.031,0.911,0.456,0.576c-0.952,0.76-1.309,1.438-2.013,1.496c0.346,2.433-0.692,5.114-1.53,7.315
				l-0.312-0.184c-0.494,0.515,0.486,0.52,0.128,0.872c-0.259-0.307-0.832,0.244-1.077-0.375c-0.617,0.781,0.238,1.341,0.221,1.961
				c0.415,0.225-0.145-0.552,0.381-0.265c0.128,0.145-0.708,1.119-0.08,1.455c-0.329,0.143-0.77-0.173-1.006-0.375l0.165,0.638
				c-0.984,0.448-0.945-1.938-2.117-1.522l-0.049,0.544c-0.847,0.291-0.382-1.604-1.01-0.372c0.162,0.667,0.995,1.416,1.439,1.006
				c-0.159,1.208,1.443,0.984,1.023,2.189c-0.496,0.229,0.197-1.004-0.428-0.919c-0.716,0.434-0.042,1.242-0.386,1.706
				c0.426-0.506,0.961,0.15,0.983,0.546c-0.451,0.558-0.556-0.574-0.813,0.314c0.361,0.246,0.485,1.142,0.905,0.493
				c0.823,0.535-0.438,0.876,0.151,1.522c-0.69,0.154-1.257-1.26-1.776-0.334c0.636-0.02,0.569,1.407,1.572,1.078
				c-0.251,0.347-0.736,0.288-1.049-0.075c-0.489,0.479,0.829,1.572-0.413,1.51l0.581,0.314c-0.238,0.134-0.443,0.351-0.836,0.572
				c-0.113,0.491,0.518,1.728-0.415,1.518c0.046,0.169-0.183,1.293,0.542,0.966c0.515-0.63-0.315-0.881,0.639-1.112
				c-0.814,0.363-0.128,1.008,0.074,1.455l-0.374,0.006c0.111,0.265-0.045,0.81,0.331,1.023c-0.184-0.218-0.447-0.161-0.561,0.018
				l0.522,0.34c0.146,1.022-1.009,0.084-0.976,1.067l-0.333-0.794c0.071,0.174-0.495,0.425-0.383,0.914
				c0.484,0.252,1.049,0.672,1.423,0.878c0.15,0.567-0.606,0.164-0.155,0.764l-0.52-0.777c-0.152-0.13-0.904,0.356-0.989,1.085
				c0.114,0.488,0.752,1.292,1.13,0.6c-0.04,0.361-0.42,0.831-0.754,0.5c0.065,0.842,0.564-0.043,0.785,0.699
				c-0.373,0.25-1.005,1.093-1.524,1.602l-0.786-0.84l-0.059,0.499c-0.631-0.722-0.546,0.278-1.24-0.166
				c-0.14,0.334,0.072,0.779,0.234,1.131c1.237-0.892,1.492,1.277,2.57,1.08c0.181,1.385-2.637,0.634-1.098,2.201
				c0.294-0.211,1.045,0.521,0.808-0.361c-0.183,0.839,1.015,0.658,0.498,1.621c-0.375-0.771-1.134,0.72-1.68-0.398
				c0.343,0.096,0.312-0.581,0.229-0.753c-0.435,0.32-1.06-0.156-1.13,0.721c0.058,0.543,0.02,1.278,0.581,1.207
				c0.607,0.02,0-0.817,0.585-0.434c0.125,1.072-0.811,1.193,0.23,1.697c-0.033-0.674,0.605-0.801,1.02-0.761l0.191,0.786
				l-0.391-0.173c-0.386,1.224,0.703,0.409,0.538,1.609l-0.818,0.527c-0.674-0.326,0.374-1.749-0.751-1.596
				c-0.076,0.79,0.48,1.082,0.163,1.812l-0.2-0.568c-0.049,0.28-1.539,0.491-0.718,1.665c0.314,0.599,0.39,0.172,0.808,0.205
				c0.077,1.276,0.488,1.671,0.521,2.489c-0.809-0.196-0.137,1.442-0.935,0.512c0.494-0.401,0.52-2.235-0.24-2.72
				c-0.985,0.422,0.175-0.994-0.793-1.313c-0.063,1.022-1.012,0.93-1.642,1.069c-0.056,0.285,0.198,0.573,0.287,0.748
				c0.581,0.145,0.588-0.229,1.193-0.225c-0.204,1.137,0.078,2.253,0.627,2.898c-0.306,0.373-0.887,0.236-0.927-0.219
				c0.107,1.365,0.006,2.821-0.182,4.118c0.969-0.822,0.208,1.45,1.011,0.891c0.224-0.691,0.913-1.273,1.337-0.883
				c-0.066,0.431-0.419-0.022-0.625,0.155c0.516,0.56-0.849,0.844-0.031,1.398c-0.294-1.248-1.164-0.259-1.912-0.499
				c0.411,0.907-0.534-0.047-0.544,0.847c0.406,0.904,0.721,2.009,0.87,3.007c-0.737,1.248-0.013,3.182,0.011,4.301
				c-0.378,0.588-1.228,0.19-1.374,0.828c0.018,0.749,0.913-0.556,0.529,0.553l-0.169-0.107c0.195,0.335-0.572,2.035,0.647,2.358
				l-0.919-0.338c-0.084,0.208,0.127,0.398,0.226,0.568c-0.3,0.01-0.571,0.252-0.769-0.084c-0.632,0.688,0.104,1.437,0.132,2.181
				l0.542-0.481c0.432,1.272-0.104,2.127,0.09,3.36l-0.532-0.037l0.322,0.733c-0.519-0.179-0.847,0.495-0.414,0.881l-1.31-1.902
				c0.312-0.53,0.644,0.576,1.168,0.243c0.458-0.284,0.307-1.424-0.205-1.606c-0.057,0.437,0.06,0.457,0.253,0.795
				c-0.74,0.146-0.714-0.517-1.21-0.843c0.031,0.229-0.192,0.555,0.042,0.603c-0.362-0.448-0.42-0.9-0.442-1.647
				c0.292,0.504,0.458-0.277,0.67-0.087c-0.651-0.057-0.857-0.769-0.675-1.697c0.753-0.664-0.489-1.736-0.283-2.811
				c0.662,0.435,1.193,0.989,1.461,1.64c0.329-0.674-0.021-0.749,0.311-1.423c-0.493-0.326-1.248-0.557-1.55-1.435l0.488-0.048
				c-0.253-0.795-0.975-0.795-0.838-1.81c0.224-1.735,0.262-3.53,0.335-4.857l0.486-0.044c-1.032-0.751-0.354-2.467-0.804-3.471
				c0.466-1.68-0.356-3.7,0.509-4.542c-0.251-3.005-0.561-5.652-0.086-8.751l0.664,0.575c-0.475-0.594,0.436-0.331,0.374-0.882
				c-0.613,0.583-0.671-0.812-1.072-1.234c0.678-1.337,0.16-3.166-0.148-4.453l0.491,0.005c-0.741-1.345,0.256-2.742,0.613-4.259
				c0.223-0.148,0.713-0.36,0.722-0.826c-0.66-0.953-0.563-1.385-0.855-2.696c0.184-0.896,0.676-2.316,1.164-3.161
				c-0.488-3.612,1.112-6.861,1.577-10.491l0.619-0.076c-0.265-3.794,2.523-7.452,3.418-10.449l0.73,0.72
				c0.666-0.714,0.852-2.031,0.117-2.176c0.722-0.7,0.894-2.378,1.936-2.447c0.706-0.737,0.349-1.285,0.793-2.056
				c1.609-1.406,2.053-2.032,3.485-3.547l-0.425,0.297c-0.025,0.312,0.246,0.625,0.661,0.339c0.337-0.751,2.37-1.527,1.051-2.014
				c2.091-0.797,4.619-3.329,7.3-2.823c-0.258-0.282,0.337-0.438,0.571-0.689c2.292-0.308,4.517,0.62,6.292,0.589
				c0.283,0.242-0.671,0.376,0.149,0.646c0.514,0.054,0.133-0.396,0.793-0.345c3.657,0.683,5.699,3.859,7.625,5.732
				c3.906,3.268,6.003,7.995,7.619,12.113l-0.237,0.034c1.394,1.12,0.239,3.57,1.846,4.327c-0.127,0.398,0.23,1.323-0.272,1.183
				c0.929,0.997,0.161,3.302,1.222,4.807c-0.003-0.156-0.064-0.236-0.192-0.396c-0.211,1.762,0.687,3.204,0.361,4.906
				c-0.118-0.161-0.222-0.466-0.46-0.489c-0.38,0.707,1.142,1.443,0.056,1.929c0.048,0.375,0.591,0.206,0.535-0.021
				c-0.106,3.764,1.173,7.663,1.608,11.525c-0.495,2.825-1.887,0.305-0.905,2.433c-0.206,0.194,0.439,0.101,0.207,0.146
				c0.37,0.826-1.174,1.4-0.547,1.947c0.677-0.286,0.414,0.366,0.836,0.358c-0.34,1.724-0.943,2.096-0.331,3.403l-0.372-0.081
				c1.15,1.514,0.646,3.356,1.888,4.625c0.59,8.645,1.408,16.916,1.674,25.316c-0.118,8.307,0.505,16.396,0.041,24.782
				c-0.907,1.979-0.877,2.128-0.432,4.271c-0.157-0.084-0.198-0.217-0.339-0.069c0.79,0.086,0.115,1.515,0.87,1.697
				c-0.082,3.1,0.231,5.935,0.41,9.093c-0.108-0.496-0.762-0.72-0.682-0.126l0.533,0.599l-0.218,0.111
				c0.137,0.402,0.546,0.827,0.779,0.395c0.848,7.959,0.345,15.438,1.305,23.564c-0.156,1.932,0.393,4.604,0.629,6.726
				c-0.785,6.34-1.598,11.885-2.411,18.524C235.954,256.945,234.144,255.593,234.146,253z"/>
			<path fill="#202020" d="M182.291,169.572c0.393-0.215,0.606-0.915,1.131-0.358C183.054,169.285,182.643,169.645,182.291,169.572z
				"/>
			<path fill="#202020" d="M186.351,150.907c-0.117-0.026,0.163-0.263,0.227-0.321c0.028,0.229,0.355,0.448,0.149,0.628
				C186.701,150.98,186.513,151.014,186.351,150.907z"/>
			<path fill="#202020" d="M186.66,146.167c0.339,0.08,0.589,1.097,0.632,1.697L186.66,146.167z"/>
			<path fill="#202020" d="M188.276,141.831c0.31-0.364,0.467-0.252,0.438,0.254C188.528,142.114,188.441,141.942,188.276,141.831z"
				/>
			<path fill="#202020" d="M187.492,141.484c0.005-0.365,0.218-0.536,0.427-0.703C187.616,140.779,188.073,141.632,187.492,141.484z
				"/>
			<path fill="#202020" d="M189.146,132.112c-0.01-0.228-0.261-0.746,0.143-0.917C189,131.404,189.643,132.335,189.146,132.112z"/>
			<path fill="#202020" d="M189.122,127.722c0.042-0.136,0.113-0.186,0.039-0.359c0.193-0.236,0.41,0.068,0.413,0.287
				L189.122,127.722z"/>
			<polygon fill="#202020" points="224.182,110.404 223.919,109.988 224.271,109.979 			"/>
			<path fill="#202020" d="M227.242,145.638c0.238,0.474-0.315,0.347-0.364,0.43C226.824,145.634,227.315,146.213,227.242,145.638z"
				/>
			<polygon fill="#202020" points="229.489,164.876 229.477,164.729 230.197,164.768 			"/>
		</g>
	</g>
</g>
<g>
	<g>
		<g>
			<path fill="#202020" d="M229.294,149.539c0.199,0.855,0.591-0.502,0.297,0.546C229.304,149.994,229.083,149.835,229.294,149.539z
				"/>
			<path fill="#202020" d="M266.458,221.878c-1.569-2.811,0.603-6.085-0.283-9.066c-0.044-0.344,0.991,0.173,0.824-0.607
				c-1.137-2.905-0.064-7.226,1.28-10.564l0.269,0.224c0.247-0.636-0.635-1.487-0.458-2.166c0.188,0.007,0.252,0.236,0.522,0.093
				c-0.557-0.207-0.181-1.259-0.583-1.574c0.238-0.259,0.686-0.207,0.959-0.545l-0.619-0.43c-1.441-1.174,0.225-2.653-0.497-4.187
				c0.147,0.079,0.258,0.233,0.408,0.122c-0.836-2.441-0.542-5.428-0.78-8.116c0.223,0.113,0.634,0.226,0.898,0.077
				c-0.674-0.154-0.813-0.986-0.917-1.707c0.705-0.304-0.575-1.247-0.182-2.078l0.151,0.076c-0.723-0.64,0.434-0.912-0.436-1.438
				l0.554-0.383c-0.981-0.293,0.522-0.889,0.028-1.414l-0.202,0.012c-0.233-0.488,0.265-0.731,0.104-1.185l0.113-0.041
				c-0.241-1.057,0.313-1.661-0.456-1.646c0.621-0.361,0.268,1.025,1.173,0.458c-0.743-3.483-0.559-7.031-0.501-10.545
				c0.317-0.392,0.416-0.642,0.71-0.724c-0.151-0.352-0.119-1.317-0.488-1.648c0.011,0.118,0.404-0.21,0.45-0.393
				c0.32-0.621-0.81-0.73-0.433-1.413c0.19,0.288,0.434,0.393,0.724,0.313c-0.571-0.621-0.438-1.413-0.599-2.127
				c0.124,0.116,0.193,0.29,0.435,0.277c-0.643-0.808,0.227-1.392-0.162-2.09l0.427,0.277c0.605-1.05-0.907-0.375-0.53-1.293
				c0.126,0.234,0.304,0.165,0.482,0.216c-0.749-0.923-0.398-2.323-0.609-3.211c0.057,0.056,0.18,0.05,0.18,0.05
				c-0.036-0.956,0.283-1.932,0.004-3c0.222-0.366,1.071,0.199,0.977-0.817c-0.89-0.025-0.249-1.729-1.294-1.208
				c0.203-0.847,0.629-2.182,0.367-2.772c0.311,0.408,1.113-0.346,1.14,0.373l0.577-0.504c0.357,0.104-0.162,0.547,0.309,0.406
				c-0.013-0.36-0.293-1.425-0.127-1.735c-0.503-0.699-1.485-1.372-1.532-2.449c0.316,0.525,0.998-0.227,1.129,0.125l-1.61-1.596
				c-0.021-0.358,0.705-0.036,0.504-0.564c-0.235,0.012-0.369-0.22-0.552-0.387c0.117-0.129-0.134-1.491,0.747-1.599
				c0.347-0.141,0.153,0.59,0.485,0.212c0.024-0.658-0.276-0.704-0.259-1.362l0.118-0.007c0.152-0.428-0.311-1.297-0.818-0.849
				c-0.04,0.301,0.532-0.09,0.256,0.346c-0.493-0.331-0.6-1.099-0.576-1.755c0.127,0.23,0.363,0.213,0.607,0.313
				c-0.646-0.913-0.815-1.854-1.082-2.845c-0.417-0.03,0.748,0.393,0.524,0.53c0.615-1.243-0.745-2.624,0.13-3.649
				c0.068,0.173-0.595,0.078-0.478,0.069c0.069-0.604,0.672-0.564,0.461-0.964c0.356-0.033-0.099-0.5-0.209-0.906
				c-0.255-0.213,0.174-0.103,0.21,0.25c-0.296-0.573-0.835-2.83-0.315-4.135c-0.234,0.026-0.857-0.793-0.831-1.091l0.548,0.11
				c0.329-0.278-0.075-0.999,0.394-1.057c-0.663-0.631,0.612,2.456,0.08,1.598c0.466-0.232-0.88-1.196-0.134-1.02
				c-0.04-0.601-0.673-1.167-0.178-1.751c-0.084,0.167,0.776,0.468,0.722-0.017c-0.124-0.854-0.27-0.236-0.473-0.925l-0.238-0.426
				c-0.535-0.008,0.05-0.765-0.538-0.424c0.437-0.124-0.309-1.223,0.579-1.177l0.702,0.086c-0.059-0.369-0.759-0.57-1.088-0.839
				c0.06-0.052,0.193-0.156,0.307-0.144c-1.071,0.002,0.025-0.879-0.83-1.26c0.313-0.79-0.106-1.94,0.528-2.36
				c-0.36-0.564-0.781-1.059-0.652-1.739c0.117,0.121,0.171,0.297,0.404,0.312c0.258-0.45-0.035-0.524-0.256-0.885
				c0.169,0.068,0.514-0.906,0.828-1.426c-0.391-0.541-0.936-0.26-1.292-0.271c0.96-0.676-0.844-1.534-0.054-2.319
				c0.185,0.169,0.674,0.747,0.844,0.228c0.932-0.704-0.976-0.921-0.647-1.844l-0.817,0.372c0.457-0.478-0.741-1.113,0.147-1.213
				c-0.362-0.21,0.087-1.047-0.725-0.763c0.425-1.544-1.321-3.033-0.076-4.328c-0.192-0.146-0.194-0.669-0.579-0.426
				c-0.358,0.468,0.45,0.329,0.179,0.551c-0.075-0.162-0.307-0.123-0.423-0.103c0.066-0.468,0.025-0.816,0.811-0.662
				c0.152-1.083-1.735-0.388-1.87-1.575c0.344-0.091,0.431-0.226,0.244-0.521l-0.802-0.342c-0.164-0.75,0.554-0.751,1.083-1.03
				c-0.229-0.357-0.501-0.775-0.982-0.719l0.39-0.791c-0.276,0.581-0.49-0.104-0.713-0.189l0.225,0.086
				c0.179-0.195-0.207-0.519-0.394-0.681c-0.278,0.254-0.158,0.735-0.116,1.006c-0.33-0.034-0.443-0.333-0.84-0.388
				c0.537-0.245,0.012-0.777-0.101-1.08c-0.076-0.381-0.671-0.076-0.711-0.148c0.239-0.189-0.337-0.495,0.184-0.531
				c0.166,0.05-0.069,0.378,0.31,0.424c-0.003-0.366,0.458-0.633-0.182-0.809c-0.472-0.12-0.853,0.786-1.013,0.002
				c0.231,0.054,0.437-0.065,0.696-0.08l-0.196-0.725l-0.431,0.317c0.047-0.158,0.123-0.139,0.151-0.216
				c-0.56,0.203-0.786-0.698-1.352-0.394c-0.259-0.199-0.21-0.72-0.39-0.986l0.076,0.008c-0.052-0.486-0.567-0.701-1.025-0.648
				l0.089-0.077c-0.11-0.203-0.534-0.418-0.916-0.282c-0.136-0.586,1.055-1.724,0.204-1.503c-0.453-0.299-1.154,0.368-1.171,0.779
				c-0.571-0.656-1.547-0.222-1.929-1.033c-0.12,0.194-0.083,0.343-0.267,0.427c-0.922-0.192-1.407,0.689-2.648,0.333
				c0.163-0.375-0.253-0.475-0.424-0.725c0.008,0.563-0.588-0.215-0.216,0.52c0.297,0.382,0.417,0.586,0.776,0.589
				c-0.406,0.452-1.152,1.304-1.8,1.227c0.315,0.023,0.296,0.221,0.291,0.439c-0.52-0.579-0.997-0.18-1.082,0.345l0.32,0.348
				l-0.563-0.082c0.005,0.235,0.648,0.738,0.02,0.82c-0.161-0.088-0.324-0.176-0.48-0.183c0.031,0.644,0.201,1.557-0.427,1.769
				l-0.816,0.011c-0.053,0.247,0.109,0.799,0.479,0.543c-0.81,0.599-1.156,1.103-1.829,1.086c0.5,2.132-0.401,4.275-1.221,6.053
				l-0.307-0.185c-0.49,0.375,0.476,0.481,0.121,0.735c-0.253-0.281-0.821,0.115-1.058-0.423c-0.613,0.583,0.227,1.135,0.205,1.647
				c0.407,0.229-0.139-0.472,0.378-0.18c0.125,0.134-0.705,0.853-0.087,1.196c-0.324,0.085-0.758-0.223-0.989-0.414l0.169,0.552
				c-0.966,0.272-0.941-1.715-2.086-1.485l-0.05,0.447c-0.834,0.155-0.371-1.37-0.994-0.413c0.171,0.575,1,1.289,1.426,0.989
				c-0.131,1.001,1.43,0.973,1.042,1.948c-0.479,0.143,0.172-0.827-0.436-0.819c-0.691,0.293-0.017,1.043-0.344,1.399
				c0.405-0.384,0.945,0.227,0.969,0.562c-0.481,0.404-0.524-0.531-0.825,0.167c0.348,0.242,0.438,0.996,0.878,0.505
				c0.795,0.532-0.467,0.676,0.092,1.275c-0.688,0.051-1.198-1.178-1.745-0.471c0.63,0.053,0.511,1.225,1.516,1.063
				c-0.261,0.259-0.739,0.157-1.035-0.178c-0.5,0.342,0.757,1.39-0.458,1.205l0.567,0.327c-0.237,0.085-0.443,0.244-0.833,0.385
				c-0.12,0.396,0.479,1.505-0.434,1.222c0.06,0.153-0.228,1.051,0.504,0.868c0.543-0.459-0.288-0.772,0.66-0.854
				c-0.812,0.208-0.127,0.836,0.021,1.219l-0.373-0.04c0.084,0.228-0.101,0.659,0.256,0.879c-0.167-0.202-0.432-0.187-0.557-0.054
				l0.495,0.343c0.078,0.858-1.005-0.054-1.037,0.758l-0.278-0.693c0.059,0.152-0.518,0.289-0.439,0.703
				c0.463,0.267,0.995,0.682,1.352,0.898c0.112,0.486-0.611,0.06-0.204,0.609l-0.463-0.704c-0.141-0.125-0.922,0.179-1.046,0.77
				c0.089,0.418,0.68,1.165,1.086,0.639c-0.057,0.295-0.456,0.636-0.769,0.319c0.023,0.706,0.559,0.036,0.741,0.68
				c-0.386,0.158-1.027,0.784-1.612,1.121l-0.704-0.788l-0.1,0.399c-0.554-0.668-0.57,0.154-1.214-0.297
				c-0.171,0.253-0.01,0.641,0.121,0.948c1.305-0.563,1.366,1.237,2.453,1.219c0.06,1.154-2.667,0.168-1.277,1.65
				c0.31-0.134,0.989,0.564,0.831-0.188c-0.252,0.661,0.946,0.671,0.356,1.39c-0.314-0.682-1.176,0.438-1.632-0.55
				c0.331,0.125,0.359-0.432,0.292-0.583c-0.458,0.203-1.036-0.268-1.181,0.437c0.016,0.452-0.073,1.049,0.486,1.066
				c0.599,0.097,0.059-0.669,0.61-0.277c0.047,0.896-0.888,0.869,0.106,1.421c0.016-0.557,0.656-0.575,1.064-0.486l0.132,0.671
				l-0.374-0.195c-0.474,0.95,0.663,0.43,0.375,1.379l-0.869,0.314c-0.633-0.354,0.565-1.36-0.567-1.39
				c-0.161,0.628,0.352,0.938-0.036,1.485l-0.139-0.486c-0.082,0.219-1.576,0.19-0.878,1.251c0.252,0.528,0.369,0.192,0.78,0.275
				c-0.049,1.044,0.319,1.418,0.272,2.085c-0.786-0.267-0.259,1.152-0.971,0.292c0.517-0.262,0.731-1.742,0.023-2.237
				c-1.018,0.21,0.271-0.782-0.657-1.171c-0.164,0.82-1.094,0.619-1.731,0.647c-0.083,0.224,0.14,0.492,0.211,0.645
				c0.561,0.195,0.605-0.107,1.205-0.023c-0.315,0.895-0.146,1.837,0.349,2.435c-0.334,0.262-0.898,0.075-0.9-0.301
				c0.008,1.128-0.266,2.287-0.583,3.31c1.042-0.541,0.061,1.197,0.914,0.847c0.291-0.529,1.032-0.909,1.415-0.542
				c-0.108,0.338-0.414-0.071-0.636,0.045c0.456,0.515-0.926,0.573-0.169,1.121c-0.168-1.042-1.129-0.354-1.847-0.641
				c0.317,0.785-0.525-0.104-0.625,0.617c0.308,0.781,0.525,1.714,0.588,2.538c-0.838,0.927-0.311,2.563-0.375,3.465
				c-0.428,0.436-1.238,0.03-1.439,0.532c-0.041,0.608,0.949-0.36,0.484,0.499l-0.161-0.103c0.17,0.288-0.719,1.599,0.473,1.961
				l-0.891-0.351c-0.099,0.161,0.098,0.333,0.184,0.479c-0.3-0.017-0.588,0.158-0.76-0.131c-0.679,0.509,0.02,1.18,0.002,1.784
				l0.568-0.353c0.349,1.056-0.215,1.712-0.064,2.716l-0.531-0.048l0.298,0.603c-0.517-0.16-0.851,0.386-0.422,0.705l-1.267-1.595
				c0.332-0.424,0.622,0.5,1.158,0.243c0.469-0.215,0.359-1.141-0.145-1.32c-0.073,0.354,0.043,0.376,0.224,0.662
				c-0.745,0.086-0.694-0.456-1.177-0.753c0.022,0.191-0.213,0.45,0.019,0.501c-0.348-0.39-0.387-0.771-0.36-1.39
				c0.262,0.436,0.474-0.199,0.674-0.027c-0.647-0.088-0.809-0.695-0.575-1.447c0.794-0.483-0.36-1.468-0.076-2.337
				c0.626,0.42,1.114,0.922,1.334,1.475c0.377-0.52,0.035-0.612,0.415-1.131c-0.465-0.311-1.207-0.573-1.426-1.322l0.489,0.009
				c-0.181-0.675-0.898-0.751-0.673-1.569c0.39-1.398,0.581-2.855,0.775-3.931l0.486,0.023c-0.948-0.738-0.104-2.052-0.449-2.926
				c0.674-1.303-0.003-3.06,0.942-3.629c0.031-2.478,0.052-4.663,0.717-7.128l0.609,0.556c-0.42-0.546,0.459-0.211,0.445-0.668
				c-0.657,0.393-0.595-0.75-0.956-1.146c0.761-1.001,0.474-2.546,0.222-3.64l0.484,0.068c-0.67-1.197,0.379-2.21,0.838-3.403
				c0.231-0.093,0.729-0.206,0.768-0.584c-0.595-0.858-0.47-1.197-0.673-2.302c0.195-0.717,0.699-1.83,1.191-2.471
				c-0.272-2.995,1.236-5.528,1.656-8.515l0.61,0.001c-0.167-3.14,2.318-5.983,3.013-8.49l0.735,0.686
				c0.647-0.537,0.665-1.691-0.028-1.876c0.627-0.541,0.749-2.002,1.688-1.983c0.603-0.592,0.247-1.116,0.626-1.78
				c1.392-1.156,1.888-1.653,3.125-3.004l-0.375,0.25c-0.012,0.3,0.245,0.625,0.607,0.387c0.356-0.649,2.295-1.182,1.089-1.816
				c1.909-0.554,5.154-2.572,7.4-1.092c-0.139-0.348,0.439-0.311,0.732-0.471c2.08,0.471,3.495,2.008,4.836,2.358
				c0.13,0.287-0.664,0.196-0.119,0.623c0.407,0.138,0.25-0.335,0.778-0.174c2.611,1.281,3.357,4.09,4.77,5.678
				c2.808,2.917,4.47,7.013,5.461,10.449l-0.236,0.028c1.206,0.943-0.041,2.972,1.403,3.591c-0.161,0.328,0.11,1.086-0.373,0.974
				c0.781,0.814-0.003,2.713,0.931,3.92c0.005-0.126-0.051-0.191-0.168-0.318c-0.338,1.428,0.518,2.53,0.234,4.016
				c-0.119-0.134-0.225-0.39-0.463-0.406c-0.378,0.593,1.156,1.205,0.04,1.613c0.032,0.312,0.581,0.171,0.534-0.019
				c-0.172,3.145,0.737,6.4,1.044,9.629c-0.62,2.319-1.887,0.167-1.034,1.968c-0.219,0.149,0.431,0.104,0.196,0.13
				c0.314,0.7-1.265,1.091-0.675,1.573c0.694-0.198,0.388,0.323,0.81,0.339c-0.457,1.4-1.076,1.668-0.563,2.778l-0.363-0.089
				c0.994,1.308,0.398,2.789,1.558,3.917c-0.019,7.133,0.151,13.964-0.177,20.797c-0.735,6.896-0.474,12.915-1.124,19.963
				c-0.98,1.616-0.956,1.735-0.591,3.524c-0.153-0.075-0.189-0.187-0.336-0.07c0.786,0.101,0.058,1.256,0.806,1.439
				c-0.184,2.562,0.031,4.93-0.097,7.567c-0.068-0.42-0.701-0.648-0.67-0.151l0.483,0.533l-0.226,0.078
				c0.104,0.343,0.478,0.725,0.744,0.383c0.447,6.666-1.412,13.112-1.721,19.593c-0.431,1.515-0.278,3.725-0.23,5.411
				c-1.499,4.868-2.783,9.215-2.531,14.309C268.686,224.865,266.727,223.985,266.458,221.878z"/>
			<path fill="#202020" d="M229.178,148.498c0.395-0.188,0.614-0.767,1.134-0.306C229.944,148.25,229.529,148.554,229.178,148.498z"
				/>
			<path fill="#202020" d="M234.481,133.617c-0.114-0.036,0.188-0.192,0.256-0.23c0.005,0.188,0.309,0.405,0.086,0.524
				C234.822,133.72,234.632,133.724,234.481,133.617z"/>
			<path fill="#202020" d="M235.269,129.834c0.336,0.112,0.487,0.967,0.455,1.452L235.269,129.834z"/>
			<path fill="#202020" d="M237.271,126.533c0.343-0.253,0.488-0.142,0.409,0.265C237.493,126.796,237.423,126.645,237.271,126.533z
				"/>
			<path fill="#202020" d="M236.528,126.147c0.041-0.295,0.269-0.405,0.492-0.512C236.72,125.593,237.089,126.345,236.528,126.147z"
				/>
			<path fill="#202020" d="M238.992,118.729c0.007-0.188-0.188-0.641,0.23-0.727C238.91,118.133,239.462,118.977,238.992,118.729z"
				/>
			<path fill="#202020" d="M239.257,115.112c0.049-0.107,0.119-0.14,0.059-0.292c0.207-0.169,0.399,0.106,0.392,0.288
				L239.257,115.112z"/>
			<polygon fill="#202020" points="266.384,105.297 266.139,104.957 266.49,104.947 			"/>
			<path fill="#202020" d="M267.583,133.94c0.202,0.402-0.341,0.259-0.396,0.322C267.167,133.906,267.612,134.412,267.583,133.94z"
				/>
			<polygon fill="#202020" points="268.392,149.768 268.39,149.646 269.105,149.736 			"/>
		</g>
	</g>
</g>
<g>
	<g>
		<g>
			<path fill="#202020" d="M186.537,12.654c3.498-0.364-1.919-0.503,2.279-0.406C188.354,12.559,187.684,12.812,186.537,12.654z"/>
			<path fill="#202020" d="M198.422,18.498c11.434-1.867,26.11,2.396,38.257,4.802c1.42,0.359-0.638,0.853,2.562,1.591
				c11.912,1.987,29.722,10.585,39.867,21.123l-0.858-0.343c2,1.778,4.904,3.74,6.942,5.854c-0.123,0.143-0.859-0.484-0.569,0.176
				c1.002,0.069,3.72,3.802,4.884,4.447c0.599,1.021,0.182,1.228,0.973,2.515l1.542,0.917c4.157,2.733,6.838,9.141,10.921,14.121
				c-0.29-0.185-0.724-0.664-0.578-0.152c6.418,8.152,12.341,19.766,17.011,30.36c-0.395-0.337-0.946-0.565-0.915,0.151
				c0.905,0.242,2.286,3.542,3.537,6.393c-0.104,1.522,2.426,4.792,3.17,8.405l-0.242-0.251c1.551,2.342,0.852,3.915,2.242,5.789
				l-0.075,1.803c1.235,0.893,0.596,3.876,1.546,5.927l0.181-0.117c0.68,2.001,0.43,3.179,1.006,5.049l-0.071,0.203
				c1.256,4.408,0.922,7.161,1.728,6.916c-0.358,1.677-0.969-4.329-1.461-1.695c3.619,14.609,2.886,30.418,0.514,45.258
				c-0.539,1.651-0.761,2.72-1.127,3.052c-0.089,1.507-0.78,5.609-0.615,7.026c0.061-0.504-0.532,0.894-0.727,1.668
				c-0.817,2.626,0.246,3.094-0.679,5.982c0.034-1.217-0.13-1.666-0.489-1.326c0.132,2.64-0.733,5.97-1.259,8.965
				c-0.018-0.489,0.075-1.219-0.186-1.164c-0.07,3.4-1.535,5.85-1.933,8.749l-0.138-1.161c-1.767,4.359,0.525,1.579-0.862,5.397
				c0.125-0.979-0.133-0.695-0.26-0.914c-0.339,3.833-2.356,9.632-3.519,13.224c0.022-0.232-0.113-0.217-0.113-0.217
				c-1.285,3.918-3.156,7.794-4.712,12.061c-0.878,1.408-0.683-0.9-2.446,3.06c0.875,0.245-3.021,6.744-0.965,4.925
				c-1.778,3.294-5.216,8.129-6.257,10.408c0.656-1.567-1.91,0.913-0.279-1.703c-0.529,0.583-1.17,1.091-1.747,1.635
				c-0.106-0.483,1.464-1.89,0.658-1.534c-0.84,1.273-3.102,5.146-4.004,6.19c-1.213,2.628-2.178,5.244-5.058,8.942
				c1.187-1.873-1.559,0.27-0.679-0.93l-3.31,5.836c-1.072,1.138-0.699-0.238-2.159,1.493c0.246,0.098-0.403,0.845-0.799,1.433
				c-0.525,0.29-4.828,4.43-5.917,4.116c-0.726,0.184,1.852-1.739,0.336-0.89c-2.289,1.703-2.26,1.967-4.607,3.628l-0.111-0.065
				c-1.597,1.021-4.449,3.39-2.451,2.714c1.104-0.697-0.694-0.153,1.06-1.044c-0.782,1.256-3.654,2.975-6.108,4.479
				c0.776-0.619,0.555-0.761,0.767-1.175c-2.923,2.635-6.515,4.646-10.219,6.933c0.127,0.403,1.095-1.431,1.755-1.527
				c-5.16,2.001-10.001,5.708-14.661,6.541c0.678-0.344,0.592,0.405,0.5,0.314c-2.52,0.923-2.604,0.328-4.159,1.145
				c-0.285-0.279-2.044,0.786-3.723,1.445c-0.806,0.53-0.497-0.021,0.975-0.539c-2.237,1.107-11.757,4.586-17.62,4.938
				c0.158,0.184-3.338,1.595-4.689,1.67l0.434-0.611c-1.257-0.163-4.428,0.638-4.708,0.201c-2.712,1.117,10.751-2.121,7.021-1.073
				c-1.031-0.173-5.174,1.629-4.46,0.807c-2.64,0.369-5.157,1.378-7.761,0.982c0.748,0.036,2.092-0.912-0.047-0.721
				c-3.775,0.366-1.054,0.338-4.12,0.738c-0.639,0.121-1.278,0.251-1.921,0.316c-0.107,0.535-3.407-0.038-1.976,0.545
				c-0.473-0.436-5.552,0.326-5.147-0.564l0.54-0.703c-1.633,0.075-2.695,0.632-4,0.897c-0.216-0.074-0.641-0.236-0.553-0.344
				c-0.318,1.022-3.919-0.215-5.927,0.367c-3.404-0.717-8.74-0.979-10.228-1.995c-2.654-0.137-5.143-0.061-8.034-0.998
				c0.609,0.031,1.417,0.18,1.629-0.009c-1.785-0.718-2.295-0.543-4.027-0.749c0.417-0.089-3.572-1.373-5.47-2.368
				c-2.598-0.388-1.889,0.407-2.235,0.676c-2.041-1.581-7.335-1.417-9.889-3.319c0.915,0.149,3.796,0.706,1.808-0.228
				c-1.898-1.741-4.891-0.722-8.271-2.68l0.562,1.163c-1.401-1.139-5.477-1.627-4.775-2.307c-1.339-0.146-4.082-2.033-4.024-1.086
				c-5.534-3.142-14.212-6.202-16.889-9.458c-0.858-0.327-2.756-1.582-2.569-0.97c1.08,1.167,2,0.754,2.332,1.316
				c-0.722-0.384-0.989-0.267-1.123-0.208c-1.622-1.153-2.935-1.976-0.968-1.667c-3.52-2.637-4.703-0.93-9.235-4.293
				c0.404-0.157,0.119-0.5-1.289-1.341l-2.943-1.196c-2.866-2.244-1.21-1.867-0.94-2.409c-1.621-1.044-3.512-2.446-4.493-2.606
				l-1.42-1.999c0.999,1.505-1.454-0.712-2.248-1.168l0.793,0.455c-0.115-0.422-1.945-1.701-2.874-2.356
				c-0.023,0.457,1.654,2.009,2.556,2.877c-0.929-0.414-2.09-1.432-3.309-2.021c0.729-0.2-2.231-2.256-3.285-3.387
				c-1.224-1.278-1.827-0.945-2.197-1.306c0.169-0.258-2.105-1.975-0.796-1.365c0.512,0.331,0.822,1.143,1.742,1.61
				c-0.713-0.948-0.255-1.248-2.305-2.582c-1.535-1.014-0.462,1.181-2.731-1.447c0.734,0.542,1.046,0.456,1.705,0.784
				c-0.745-0.779-1.425-1.624-2.108-2.462l-0.472,0.282c-0.212-0.406,0.033-0.227-0.057-0.416c-1.075-0.286-3.595-3.382-4.568-3.466
				c-1.21-1.109-2.043-2.804-3.05-3.99l0.235,0.193c-1.024-1.64-2.882-3.362-4.185-4.359l0.142-0.011
				c-0.617-0.837-2.217-2.697-3.282-3.524c-1.326-2.3,1.039-1.931-1.301-3.775c-1.587-2.112-3.229-2.779-2.884-1.706
				c-2.583-4.034-6.322-8.081-8.014-12.271c-0.558-0.463-0.439-0.022-1.318-1.15c-3.483-6.088-8.014-12.524-9.633-17.971
				c1.116,1.703,0.53-0.122,0.788-0.299c-1.163-1.281-0.441-2.025-1.438-2.193c-0.359,0.364-0.642,0.32,0.053,2.176
				c-2.073-3.615-4.932-9.332-5.304-11.785c0.245,1.178-0.24,0.39-0.729-0.416c0.838-0.022-0.282-2.938-1.387-5.056l-0.541-0.159
				l-0.009-1.635c-0.414-0.816-1.238-0.652-1.517-3.042c0.137-0.175,0.273-0.359,0.272-0.809c-1.203-2.192-2.549-5.453-2.745-8.152
				l0.193-2.265c-0.348-1.084-1.082-2.905-0.902-0.898c-0.319-4.566-0.621-7.468-0.251-8.951
				c-2.266-7.578-2.547-19.115-1.392-28.146l0.329,0.31c0.55-2.393-0.463-1.332-0.004-2.993c0.22,0.818,0.99-1.741,1.122,0.2
				c0.866-3.379,0.042-4.513,0.214-6.788c-0.405-0.421,0.026,1.856-0.488,1.323c-0.181-0.432,1.189-4.689,0.658-5.349
				c0.452-0.805,0.812-0.03,0.992,0.484l0.111-2.147c1.335-2.349,0.196,6.06,1.751,3.594l0.297-1.906
				c1.097-1.645-0.255,5.127,0.998,0.468c0.097-2.104-0.513-4.093-1.207-2.325c0.764-4.333-1.296-2.398,0.054-6.981
				c0.749-1.146-0.94,3.703-0.134,2.958c1.15-2.012,0.913-4.401,1.646-6.273c-0.854,2.059-1.024,0.063-0.753-1.368
				c0.983-2.24,0.188,1.708,1.222-1.571c-0.199-0.651,0.568-3.746-0.609-1.242c-0.452-1.473,1.431-3.311,1.39-5.325
				c0.976-0.83,0.221,3.848,1.776,0.396c-0.819,0.345,0.818-4.673-0.747-3.135c0.746-1.312,1.258-1.271,1.19-0.138
				c1.175-1.794,0.967-5.175,2.367-5.33l-0.294-0.927c0.464-0.523,0.932-1.355,1.728-2.178c0.839-1.653,1.926-5.761,2.702-5.174
				c0.146-0.595,2.177-4.338,0.825-3.203c-1.578,2.175-0.951,2.947-2.417,3.863c1.52-1.338,1.576-3.506,2.176-4.944l0.452-0.04
				c0.334-0.864,1.471-2.648,1.415-3.348c-0.175,0.718,0.231,0.525,0.674-0.057l0.003-1.121c1.68-3.353,1.213-0.293,3.052-3.41
				c-0.405,0.83-0.772,1.68-1.092,2.556c0.206-0.583,1.292-1.347,2.133-2.858c-0.057-0.834,0.136-2.224,0.133-2.93
				c0.964-1.831,0.991-0.434,1.688-2.409l-0.968,2.54c-0.078,0.428,1.681-0.998,3.207-3.234c0.915-1.47,1.991-4.063,0.075-2.055
				c0.837-1.094,2.263-2.418,1.894-1.331c1.763-2.56-0.691-0.012,0.707-2.33c0.928-0.699,3.354-2.922,5.116-4.167l-1.118,2.646
				l1.188-1.385c-0.997,2.235,1.178-0.58,0.875,0.899c0.89-0.874,1.673-2.176,2.308-3.217c-3.248,2.026,1.446-4.156-0.026-4.058
				c3.232-3.915,4.042-0.542,6.439-5.498c-0.791,0.432,0.339-1.931-1.631,0.592c2.268-2.17,0.646-2.363,3.678-4.597
				c-1.693,2.195,2.889-1.247,0.453,1.917c-0.069-0.443-1.782,1.333-2.102,1.865c1.199-0.62,0.523,0.887,2.823-1.308
				c1.343-1.403,3.268-3.245,2.608-3.384c-0.471-0.39-2.123,2.089-1.635,0.786c2.707-2.821,3.767-2.606,4.264-4.476
				c-1.776,1.712-2.621,1.704-2.877,1.355l1.943-2.15l-0.151,0.67c3.719-2.774,0.562-1.436,4.076-4.247l2.12-0.735
				c-0.381,1.213-5.19,3.949-3.85,4.285c2.246-1.824,2.625-2.881,4.904-4.412c-0.406,0.465-1.026,1.021-1.425,1.482
				c0.846-0.622,2.469-0.213,5.269-3.308c1.506-1.537,0.216-0.653,0.005-1.02c3.647-2.904,4.549-4.057,7.061-5.728
				c-0.069,1.019,4.496-2.837,2.168-0.323c-1.566,0.375-7.15,4.199-7.939,5.894c1.932-0.228-3.011,2.063-3.203,3.426
				c2.987-2.187,3.41-1.315,4.256-1.167c0.842-0.569,1.479-1.37,1.911-1.81c0.007-0.734-1.062,0.066-1.48-0.376
				c3.341-2.419,6.628-4.645,8.197-6.448c1.314-0.51,1.252,0.229-0.081,1.168c4.058-2.746,8.637-5.357,12.916-7.206
				c-3.139,0.482,4.564-2.507,2.371-2.312c-2.34,0.915-4.597,1.271-3.54,0.27c1.445-0.646,0.142,0.398,0.825,0.288
				c1.577-1.362,3.155-0.624,4.571-2.242c-3.924,2.282-0.289,1.444-0.716,2.491c2.727-1.78,0.071,0.477,2.988-0.796
				c2.79-1.583,6.243-3.594,9.59-4.86c4.423-0.965,10.783-3.58,14.648-4.699c2.135-0.128,0.971,1.028,3.203,0.638
				c2.577-0.643-2.134-0.422,1.782-0.976l-0.331,0.254c1.107-0.547,7.136-1.058,8.06-2.401l-1.015,1.129
				c0.737-0.055,1.362-0.389,1.939-0.6c0.086,0.289,0.971,0.396-0.159,0.813c2.483,0.157,4.956-1.07,7.565-1.421l-1.758-0.297
				c4.404-1.043,7.458-1.035,11.781-1.587l-0.078,0.542l2.55-0.573c-0.583,0.581,1.805,0.667,3.13,0.115l-6.555,1.954
				c-1.886-0.128,1.957-0.84,0.741-1.247c-1.042-0.372-5.038,0.188-5.606,0.838c1.531-0.154,1.583-0.307,2.754-0.607
				c0.586,0.666-1.736,0.898-2.807,1.581c0.792-0.143,1.947-0.086,2.091-0.337c-1.519,0.576-3.077,0.861-5.669,1.25
				c1.714-0.54-1.024-0.317-0.391-0.621c-0.107,0.703-2.568,1.148-5.77,1.631c-2.406-0.274-5.897,1.52-9.55,2.279
				c1.325-0.996,3.098-2.02,5.306-2.67c-2.4,0.105-2.582,0.52-4.963,0.763c-1.007,0.751-1.625,1.678-4.529,2.691l-0.287-0.432
				c-2.638,0.926-2.415,1.703-5.843,2.554c-5.869,1.49-11.732,3.665-15.981,5.47l-0.349-0.379c-2.007,1.853-7.64,3.911-10.526,5.876
				c-5.439,2.335-10.813,6.735-13.736,7.764c-8.394,6.148-15.164,12.174-22.954,19.558l0.818-1.749
				c-1.037,1.698-1.223,0.551-2.455,2.008c1.902-1.185-1.286,2.423-1.881,3.681c-3.799,3.024-7.176,8.21-9.542,11.807l-0.479-0.177
				c-1.957,3.885-5.629,7.431-8.641,11.846c-0.5,0.4-1.472,0.926-2.201,2.348c-0.757,2.921-1.652,4.146-3.227,8.089
				c-1.341,2.768-3.897,7.081-5.289,9.904c-3.595,11.04-7.684,22.204-8.932,34.19l-0.69,0.767
				c-0.695,11.622-1.806,25.908,0.296,35.645l-1.104-0.818c0.152,3.13,1.237,6.991,1.84,6.064c0.436,3.077,2.057,7.435,1.901,9.508
				c0.778,3.071,1.596,3.563,2.501,6.014c1.956,6.015,2.778,8.126,5.701,13.503l-0.61-1.381c-0.488-0.504-0.889-0.379-0.277,1.011
				c1.229,1.932,3.484,7.609,3.499,5.057c2.42,6.066,7.684,12.982,10.339,18.721c-0.022-0.617,0.897,0.678,1.44,1.113
				c3.028,4.768,6.048,9.939,9.217,13.185c0.435,0.797-1.326-0.784,0.09,1.034c0.95,0.986,0.344-0.237,1.534,0.962
				c6.102,6.773,11.645,14.402,17.991,19.825c11.291,9.521,23.99,18.327,36.711,24.65l-0.25,0.136
				c4.563,1.448,9.69,5.653,13.7,5.985c0.941,0.655,3.951,1.692,3.001,1.812c3.726,0.929,9.623,4.36,15.158,5.206
				c-0.475-0.157-0.76-0.218-1.343-0.299c5.151,2.084,10.031,2.688,15.62,4.323c-0.597-0.029-1.663-0.192-1.884-0.001
				c2.114,0.976,5.405,0.152,6.424,1.417c1.278,0.202,1.003-0.409,0.22-0.505c12.485,2.596,26.259,2.646,39.234,0.659
				c9.43-0.646,0.876,1.969,8.1-0.172c0.644,0.096,0.356-0.51,0.498-0.299c2.761-0.884,4.715,0.424,6.528-0.712
				c-0.967-0.465,1.206-0.716,1.16-1.14c5.736-0.953,7.015-0.897,11.229-2.78l-0.209,0.453c4.749-2.722,10.709-4.633,14.292-7.672
				c13.383-6.51,25.482-14.411,34.686-24.971c9.264-10.613,16.121-23.157,21.583-36.376c10.46-26.109,15.764-55.018,16.208-83.196
				c0.356-6.726,0.462-7.304-1.142-14.555c0.2,0.274,0.31,0.725,0.375,0.21c-0.78-0.238-0.935-5.145-1.895-5.677
				c-2.037-10.454-5.103-19.884-9.216-30.093c0.698,1.594,1.61,2.183,0.821,0.26l-1.242-1.833l0.063-0.41
				c-0.678-1.259-1.651-2.518-1.3-1.081c-11.536-24.474-25.091-50.344-47.547-64.055c-5.206-3.581-13.61-7.185-20.187-9.417
				c-18.856-7.781-38.172-12.764-58.639-9.688C187.241,21.88,189.542,19.072,198.422,18.498z"/>
			<path fill="#202020" d="M182.328,12.979c-0.775-0.349-3.252-0.42-1.329-1.056C181.271,12.276,182.559,12.614,182.328,12.979z"/>
			<path fill="#202020" d="M117.309,24.134c-0.03,0.146-0.952,0.216-1.164,0.27c0.735-0.38,1.325-0.964,2.015-1.043
				C117.395,23.716,117.591,23.836,117.309,24.134z"/>
			<path fill="#202020" d="M101.989,31.866c0.045-0.428,3.109-2.497,4.983-3.613L101.989,31.866z"/>
			<path fill="#202020" d="M87.836,39.616c-1.297,0.594-1.087,0.237,0.432-0.877C88.488,38.807,88.044,39.252,87.836,39.616z"/>
			<path fill="#202020" d="M87.397,40.935c-1.065,0.802-1.725,1.035-2.372,1.264C85.248,42.409,87.4,40.202,87.397,40.935z"/>
			<path fill="#202020" d="M61.311,64.083c-0.522,0.658-1.476,2.229-2.279,2.574C59.804,66.167,61.343,63.252,61.311,64.083z"/>
			<path fill="#202020" d="M51.532,77.026c-0.335,0.407-0.492,0.56-0.76,1.119c-0.672,0.71-0.309-0.283,0.123-0.981L51.532,77.026z"
				/>
			<polygon fill="#202020" points="143.944,312.662 142.272,312.185 142.631,311.954 			"/>
			<path fill="#202020" d="M268.007,303.209c1.382-1.072,1.2-0.327,1.476-0.431C268.151,303.609,269.769,302.108,268.007,303.209z"
				/>
			<polygon fill="#202020" points="312.7,251.921 312.47,252.393 311.902,251.924 			"/>
		</g>
	</g>
</g>
</svg>
