<?xml version="1.0" encoding="utf-8"?>
<!-- Generator: Adobe Illustrator 14.0.0, SVG Export Plug-In . SVG Version: 6.00 Build 43363)  -->
<!DOCTYPE svg PUBLIC "-//W3C//DTD SVG 1.1//EN" "http://www.w3.org/Graphics/SVG/1.1/DTD/svg11.dtd">
<svg version="1.1" id="Capa_1" xmlns="http://www.w3.org/2000/svg" xmlns:xlink="http://www.w3.org/1999/xlink" x="0px" y="0px"
	 width="590.816px" height="603.061px" viewBox="0 0 590.816 603.061" enable-background="new 0 0 590.816 603.061"
	 xml:space="preserve">
<g>
	<g>
		<g>
			<g>
				<path fill="#202020" d="M79.594,269.389c22.085-39.175,40.148-72.008,58.664-106.545c4.647-8.382,9.483-16.724,14.723-24.647
					c5.048-7.676,11.388-15.929,16.251-19.292c1.032-0.704,1.914-0.947,1.28-0.575c-0.433,0.344-3.21,0.587-4.618-0.136
					c-2.622-1.532,0.207,0.563,1.615,4.407c3.567,7.885,5.917,18.775,7.658,30.86c2.065,13.052,2.687,33.324,4.069,61.137
					c1.354,27.045,4.834,59.68,8.263,94.27c3.156,33.981,5.854,73.398,9.207,112.227c1.556,19.578,2.969,39.368,4.066,59.126
					c0.344,9.601,1.227,20.328,1.025,28.973l0.003,14.979l0.001,3.736l0,1.866v0.467v0.233c-34.927,2.38,47.585-2.937,39.074-2.514
					l-0.103-0.89l-0.825-7.106c-4.235-37.681-4.42-76.978-6.304-112.558c-1.376-35.681-1.605-67.69,0.779-94.283
					c2.224-26.606,7.01-47.536,11.505-61.483c4.336-14.425,7.866-19.807,7.917-20.212c0.037,0.212,3.219-7.404,11.194-16.835
					c3.788-4.517,9.625-9.028,13.016-9.51c1.648-0.251,2.582-0.248,4.894,0.789c2.217,1.127,5.67,3.731,8.738,7.744
					c14.896,17.318,24.43,46.271,32.572,80.848c2.08,8.555,4.492,17.991,6.846,26.892c2.339,8.386,4.065,17.116,5.724,25.986
					c3.063,17.826,4.888,36.487,5.751,55.801c0.937,19.281,1.1,39.188,1.488,59.355c0.119,5.063,0.197,10.099,0.361,15.187
					l0.226,7.613c-8.242,1.824,71.858-14.657,37.92-7.779l-0.059-0.175l-0.119-0.347l-0.24-0.695l-0.484-1.386
					c-0.345-0.9-0.637-1.868-0.907-2.865c-2.327-7.802-3.785-16.631-4.748-25.734c-2.002-18.188-2.063-37.624-3.511-57.176
					c-1.272-18.104-1.331-35.592-0.164-52.048c2.253-32.376,10.523-62.661,21.66-81.061c5.244-9.618,12.936-13.658,11.019-12.407
					c-2.102-0.958,2.87,1.457,5.725,5.783c26.677,37.752,35.668,79.273,44.326,115.687c7.518,36.671,7.371,75.14,14.313,119.597
					c5.428-44.389,15.432-80.652,14.129-122.772c-1.046-21.059-3.557-41.374-9.195-64.252
					c-5.911-22.621-14.542-47.038-32.496-71.831c-2.912-3.722-6.407-8.003-12.098-12.427c-5.43-4.256-14.504-9.246-25.966-8.875
					c-11.436,0.33-21.031,5.982-27.42,11.717c-6.632,5.887-11.494,12.412-15.729,19.267c-16.426,27.796-24.391,61.155-27.442,98.717
					c-1.332,18.619-1.236,37.965,0.138,57.58c1.386,18.156,1.384,37.684,3.65,58.74c1.137,10.497,2.807,21.375,6.16,32.709
					c0.393,1.407,0.826,2.825,1.354,4.265l0.752,2.147l0.379,1.073l0.19,0.536l0.096,0.269c-33.9,6.959,46.301-9.133,38.027-7.607
					l-0.221-7.375c-0.16-4.91-0.239-9.888-0.357-14.841c-0.396-19.896-0.559-40.129-1.554-60.485
					c-0.921-20.321-2.888-40.786-6.328-60.679c-1.853-9.936-3.821-19.759-6.473-29.293c-2.403-9.073-4.526-17.358-6.692-26.218
					c-8.391-34.752-18.748-70.574-40.522-96.415c-5.584-6.931-12.509-13.249-21.598-17.849c-9.071-4.643-20.651-6.076-30.021-3.961
					c-18.883,4.619-27.727,14.966-34.467,22.042c-12.684,15.144-16.237,24.77-16.516,24.705
					c-0.585,0.089-19.229,37.773-23.689,96.14c-2.634,29.137-2.338,63.096-0.984,99.042c1.902,35.995,1.92,74.412,6.461,115.654
					l0.893,7.694l0.112,0.963c-8.486,0.699,74.027-4.796,39.098-2.6v-0.233v-0.467l0-1.866l0.001-3.736l0.003-14.979
					c0.16-11.364-0.705-20.651-1.069-31.068c-1.116-20.256-2.551-40.384-4.117-60.134c-3.425-39.785-5.933-76.846-9.277-112.891
					c-3.52-35.388-6.871-66.421-8.246-92.953c-1.339-25.732-2.067-48.76-4.574-64.215c-2.182-14.149-5.113-28.21-11.945-42.045
					c-3.875-6.717-7.622-15.31-20.835-21.815c-6.661-3.05-15.472-3.031-21.236-0.909c-6.034,1.987-9.885,4.874-13.166,7.546
					c-12.016,10.938-16.916,21.149-22.235,31.126c-4.954,9.972-8.816,19.7-12.237,29.343
					C99.259,189.165,90.025,225.812,79.594,269.389z"/>
			</g>
		</g>
	</g>
</g>
<g>
	<g>
		<g>
			<g>
				<path fill="#202020" d="M227.551,21.426c-21.087-3.145-41.286-1.67-60.317,1.426c-19.127,3.15-37.4,8.293-55.632,16.209
					C93.67,46.768,74.394,59.939,60.81,78.5c-14.085,18.224-24.59,40.287-32.8,65.282c-4.513,13.54-10.181,34.08-15.416,59.391
					c-5.488,24.349-11.361,57.588-9.472,92.351c2.325,70.036,30.925,151.448,83.525,211.355
					c26.055,29.95,57.597,54.079,90.544,69.662c33.367,15.611,66.838,21.034,94.372,22.82c55.51,2.645,89.323-2.681,89.511-1.974
					c0.002-0.031,8.678-0.549,24.255-2.283c15.537-1.957,38.234-4.756,65.367-13.813C506.897,564.796,567.83,502,582.847,421.867
					c15.759-79.847-4.979-161.213-27.666-225.228c-23.443-64.502-57.183-112.621-79.406-132.728
					c-20.042-19.348-42.781-30.907-63.095-38.451c-20.607-7.767-40.152-12.251-59.247-15.249
					c-19.114-2.897-37.846-4.194-57.122-3.798c-18.3,0.907-40.839,0.013-58.557,12.972c20.095-8.179,39.014-2.55,57.524,0.205
					c18.26,3.356,35.647,7.736,53.152,12.963c17.456,5.308,35.154,11.414,53.19,19.636c18.221,8.262,36.114,18.253,52.495,34.185
					c18.369,16.661,49.307,59.923,71.637,121.286c21.647,60.528,40.475,138.208,26.324,207.954
					c-12.973,69.597-65.676,122.909-111.515,136.088c-47.157,14.722-82.296,13.705-81.895,14.574
					c0.212-0.66-34.339,4.409-85.004,1.878c-25.255-1.646-54.637-6.61-83.15-19.982c-28.605-13.556-56.811-34.991-80.193-61.92
					c-47.393-53.848-73.805-128.772-75.803-192.039c-1.557-32.144,3.199-59.365,8.763-84.614
					c5.051-24.571,10.312-43.683,14.386-56.118c15.106-46.338,34.017-76.66,64.605-94.164c15.12-9.263,31.154-17.118,48.389-23.701
					C187.914,29.069,206.38,23.292,227.551,21.426z"/>
			</g>
		</g>
	</g>
</g>
</svg>
