<?xml version="1.0" encoding="utf-8"?>
<!-- Generator: Adobe Illustrator 14.0.0, SVG Export Plug-In . SVG Version: 6.00 Build 43363)  -->
<!DOCTYPE svg PUBLIC "-//W3C//DTD SVG 1.1//EN" "http://www.w3.org/Graphics/SVG/1.1/DTD/svg11.dtd">
<svg version="1.1" id="Capa_1" xmlns="http://www.w3.org/2000/svg" xmlns:xlink="http://www.w3.org/1999/xlink" x="0px" y="0px"
	 width="800px" height="600px" viewBox="0 0 800 600" enable-background="new 0 0 800 600" xml:space="preserve">
<g>
	<g>
		<g>
			<path fill="#202020" d="M189.334,278.658c3.75-3.905-2.668,1.347,2.263-2.735C191.366,276.723,190.895,277.698,189.334,278.658z"
				/>
			<path fill="#202020" d="M470.653,427.77c-8.261-15.11-9.4-37.842-13.628-55.806c-0.415-2.138,1.565,0.34,0.536-4.45
				c-2.208-8.76-4.158-20.125-5.456-32.128c-0.782-12.021-1.141-24.554-2.005-35.541l0.614,1.254
				c-0.306-4.201-2.548-9.015-3.269-13.381c0.277-0.09,0.679,1.314,0.86,0.227c-1.053-0.92-2.146-7.782-3.378-9.407
				c-0.168-1.782,0.544-1.815,0.167-4.124c-0.58-0.717-1.141-1.43-1.77-2.113c-2.334-2.922-3.894-6.884-6.73-10.598
				c-2.394-3.846-8.525-6.683-12.941-3.684c0.348-0.384,1.225-0.923,0.414-0.833c-14.142,8.169-21.627,27.24-25.165,43.687
				c-0.174-0.74-0.63-1.507-1.24-0.62c0.732,1.064-0.167,6.271-0.763,10.822c-1.371,1.877-0.337,7.902-1.497,13.158l-0.171-0.485
				c0.59,4.055-1.227,5.811-0.252,9.137l-1.017,2.455c1.339,1.845-1.204,5.691-0.617,9.035l0.308-0.089
				c0.168,3.112-0.627,4.692-0.511,7.586l-0.181,0.266c0.104,6.758-0.831,10.658,0.324,10.531c-1.008,2.338-0.193-6.563-1.671-2.887
				c0.386,22.247-0.258,45.168,1.803,67.411c-0.199,2.562-0.17,4.188-0.548,4.803c0.382,2.208,1.206,8.344,2.148,10.249
				c-0.137-0.739-0.368,1.515-0.245,2.698c0.145,4.109,1.99,4.155,2.375,8.609c-0.662-1.672-1.152-2.198-1.45-1.525
				c0.832,1.779,1.471,3.915,2.054,6.151l0.216,0.843c-0.345,0.205,0.922,0.139-0.747,0.567l-0.099-0.428l-0.391-1.716l-0.807-3.368
				c0.321,0.65,0.639,1.696,0.964,1.466c-1.935-4.651-1.445-8.879-2.991-12.975l0.981,1.444c-0.632-6.975-1.784-1.728-2.546-7.709
				c0.502,1.37,0.652,0.818,0.97,1.016c-2.301-5.249-3.864-14.196-5.281-19.634c0.153,0.313,0.315,0.188,0.315,0.188
				c-1.357-5.963-2.103-12.364-3.616-18.869c-0.095-2.454,1.729,0.525,0.463-5.81c-1.247,0.454-2.554-10.664-3.334-6.66
				c-0.734-5.45-1.975-14.089-3.245-17.566c1.014,2.315,1.033-2.965,2.103,1.493l0.067-3.563c0.641,0.392,0.566,3.531,1.008,2.308
				c-0.562-2.235-2.403-8.69-2.729-10.724c-1.804-3.963-4.171-7.407-5.982-14.035c1.326,3.001,0.961-2.141,1.741-0.073l-4.938-8.628
				c-0.647-2.188,0.888-0.75-0.297-3.855c-0.296,0.255-0.88-1.079-1.414-1.968c-0.085-0.875-2.975-9.024-1.987-10.353
				c0.204-1.121,1.303,3.501,1.045,0.935c-1.208-4.047-1.643-4.114-2.919-8.144l0.143-0.132c-0.657-2.716-3.022-7.664-2.8-4.561
				c0.551,1.86,0.532-0.938,1.037,1.915c-1.323-1.645-3.01-6.245-4.297-10.26c0.633,1.306,0.914,1.03,1.442,1.463
				c-2.73-5.07-5.067-10.606-7.512-16.443c-0.622,0.117,1.842,1.847,1.834,2.839c-2.096-7.933-6.262-15.938-7.112-22.581
				c0.441,1.008-0.668,0.824-0.523,0.701c-1.104-3.694-0.209-3.807-1.346-6.065c0.427-0.424-1.228-2.912-2.352-5.177
				c-0.876-1.042-0.003-0.723,0.883,1.312c-1.379-2.915-8.642-17.25-14.043-14.887c0.084,0.189-2.731,2.257-3.815,3.591l-0.073-1.01
				c-1.525,0.356-3.792,4.11-4.505,3.934c-0.709,1.865,1.18-1.397,3.423-3.798c2.244-2.51,4.791-3.376,2.977-2.3
				c-1.532-0.255-4.159,5.036-4.143,3.572c-2.35,2.583-3.472,6.066-5.854,8.768c0.592-0.838,0.508-3.211-0.941-0.536
				c-2.391,4.838-0.388,1.528-2.078,5.576l-0.835,2.646c0.651,0.473-2.012,4.427-0.397,2.914c-0.841,0.26-2.704,7.695-3.559,6.413
				c-0.216-0.454-0.561-0.57-0.771-0.97c-0.626,2.083-0.137,3.978-0.255,5.81c-0.187,0.267-0.579,0.791-0.703,0.63
				c1.483,0.822-1.714,5.34-1.064,8.373c-1.786,4.618-2.414,12.193-3.717,14.357c-0.004,3.834,0.2,7.303-0.429,11.584
				c-0.085-0.869-0.042-2.044-0.367-2.317c-0.674,2.679-0.327,3.381-0.159,5.882c-0.237-0.577-1.176,5.403-1.732,8.465
				c0.467,3.807,1.357,2.488,1.876,2.869c-1.591,3.499,1.273,10.655,0.138,15.063c-0.293-1.302-1.097-5.512-1.31-2.317
				c-1.382,3.592,1.592,6.946,1.36,12.602l1.178-1.492c-0.6,2.573,1.568,8.156,0.188,7.726c0.65,1.823,0.315,6.663,1.512,5.891
				c-0.009,9.322,3.56,22.317,2.039,28.31c0.39,1.3,0.615,4.643,1.176,3.877c0.414-2.299-0.916-3.014-0.544-3.9
				c0.197,1.188,0.58,1.398,0.771,1.503c0.096,2.916,0.302,5.194-1.113,2.614c0.042,6.507,3.037,6.331,3.494,14.609
				c-0.565-0.313-0.695,0.334-0.344,2.728l1.375,4.477c0.317,5.356-0.909,3.145-1.781,3.356c0.386,2.833,0.663,6.31,1.392,7.569
				l-0.894,3.539c0.648-2.581,0.7,2.315,0.95,3.651l-0.279-1.332c-0.365,0.542,0.04,3.838,0.202,5.517
				c0.563-0.425,0.616-3.815,0.699-5.671c0.454,1.443,0.487,3.731,1.01,5.671c-0.91-0.618-0.483,4.708-0.599,6.999
				c-0.199,2.625,0.777,2.974,0.747,3.742c-0.423,0.063-0.189,4.303-0.762,2.234c-0.108-0.9,0.493-2.045,0.088-3.534
				c-0.349,1.731-1.107,1.51-0.652,5.12c0.333,2.72,1.795-0.639,1.001,4.493c-0.125-1.362-0.481-1.627-0.763-2.691
				c-0.18,1.6-0.471,3.195-0.714,4.787l0.787,0.261c-0.245,0.637-0.286,0.183-0.41,0.47c0.188,0.374,0.269,1.022,0.298,1.804
				l0.005,0.148l0.002,0.075l0.001,0.037v0.02l0,0.01c-3.369,0.512,7.54-1.143-7.552,1.147l-0.001-0.002l-0.002-0.005l-0.132-0.298
				l-0.264-0.625l-0.531-1.316c-0.762-1.769-1.272-3.52-1.89-3.952c-0.81-2.471-0.673-5.318-1.029-7.628l0.147,0.431
				c-0.055-2.912-0.943-6.443-1.858-8.712l0.193,0.091c-0.185-1.521-0.893-5.07-1.669-6.901c-0.025-3.91,2.783-1.741,1.097-5.809
				c-0.563-3.87-2.294-5.869-2.587-4.236c-0.438-7.053-2.846-14.827-2.315-21.467c-0.44-0.971-0.567-0.31-1.001-2.366
				c-0.934-10.3-3.283-21.615-2.497-29.944c0.608,2.942,0.82,0.122,1.266,0.019c-0.939-2.39,0.472-3.025-0.834-3.792
				c-0.699,0.31-1.071,0.099-1.097,3.017c-0.958-6.096-1.802-15.426-1.398-18.879c-0.188,1.728-0.521,0.428-0.852-0.89
				c1.189,0.341,0.978-4.192,0.281-7.578l-0.741-0.42l0.533-2.29c-0.333-1.292-1.591-1.325-1.198-4.768
				c0.258-0.205,0.519-0.425,0.667-1.063c-0.866-3.483-2.251-8.389-1.973-12.271l0.758-3.218c-0.25-1.626-1.1-4.336-1.151-1.428
				c0.064-6.59-0.214-10.804,0.497-12.954c-2.982-11.267-4.268-27.452-5.297-40.578l0.559,0.348
				c0.191-3.558-1.073-1.749-0.917-4.229c0.597,1.09,0.861-2.773,1.709-0.068c0.118-5.079-1.501-6.399-2.035-9.644
				c-0.736-0.436,0.685,2.591-0.25,2.036c-0.297-0.537-0.104-7.005-1.22-7.688c0.293-1.3,1.15-0.389,1.637,0.253l-0.792-3.023
				c0.87-3.874,2.969,8.36,4.106,4.273l-0.423-2.815c0.838-2.811,1.922,7.38,1.638,0.229c-0.8-3.041-2.556-5.532-2.764-2.743
				c-0.886-6.396-2.748-2.738-3.323-9.652c0.433-1.942,0.678,5.516,1.405,4.103c0.534-3.333-1.094-6.477-1.077-9.402
				c-0.083,3.253-1.397,0.637-1.79-1.424c0.156-3.557,1.207,2.19,0.836-2.798c-0.68-0.759-1.572-5.292-1.611-1.296
				c-1.538-1.669-0.12-5.21-1.437-7.816c0.807-1.712,2.711,4.907,2.665-0.608c-0.792,0.996-1.997-6.443-3.036-3.466
				c-0.002-2.287,0.7-2.582,1.455-1.021c0.213-3.213-2.358-7.538-0.572-8.688l-1.018-1.02c0.244-1.005,0.42-2.406,0.846-4.024
				c-0.122-2.74-1.657-8.717-0.215-8.524c-0.176-0.87-0.376-7.018-1.262-4.604c-0.439,3.836,0.898,4.382-0.353,6.57
				c0.987-2.766-0.364-5.537-0.826-7.711l0.54-0.386c-0.264-1.31-0.312-4.299-0.95-5.083c0.368,0.982,0.72,0.44,0.8-0.6
				l-0.927-1.308c-0.789-5.187,1.444-1.357,0.762-6.4l0.961,3.813c-0.184-0.849,0.454-2.64-0.025-5.058
				c-0.832-0.884-1.968-2.524-2.648-3.247c-0.664-2.749,0.749-1.384-0.439-3.992l1.392,3.47c0.328,0.522,1-2.612,0.384-6.349
				c-0.704-2.334-2.487-5.693-2.2-1.961c-0.318-1.826-0.481-4.411,0.407-3.124c-1.245-3.98-0.682,0.714-1.985-2.625
				c0.168-1.54-0.503-5.997-0.865-8.787l2.538,3.015l-0.886-2.344c2.134,2.686,0.127-1.855,1.808-0.518
				c-0.399-1.771-1.811-3.415-2.778-4.83c0.8,5.09-4.771-3.569-5.405-1.204c-3.435-3.255-0.09-6.291-5.107-5.411
				c0.476,0.5-1.068,1.427,0.753,1.346c-1.932-0.442-0.775,1.103-3.37,1.245c1.96-1.455-3.219-0.403-0.117-2.657
				c-0.014,0.495,2.006-0.203,2.423-0.162c-1.086-0.604,0.347-1.876-2.989-1.068c-2.054,0.775-4.777,3.022-3.855,3.365
				c0.62,0.571,2.861-2.06,2.146-0.513c-3.484,2.742-5.044,2.838-5.327,5.356c2.094-2.461,3.33-2.066,3.677-1.604
				c-0.756,0.794-1.481,1.723-2.196,2.681l0.035-0.913c-4.209,4.123-0.39,1.855-4.063,6.355c-0.885,0.478-1.719,1.065-2.594,1.607
				c-0.102-1.947,5.575-6.624,3.646-6.836c-2.541,2.921-2.583,4.541-5.063,7.36c0.353-0.764,0.967-1.729,1.315-2.496
				c-0.829,1.135-3.592,1.03-5.512,6.718c-1.102,2.842,0.106,0.984,0.608,1.37c-3.102,5.749-3.413,7.813-5.227,11.629
				c-0.736-1.35-3.381,6.708-2.47,1.927c1.528-1.689,5.856-10.113,6.056-12.677c-2.457,1.34,2.763-4.352,2.335-6.26
				c-2.851,4.429-3.865,3.556-5.142,3.808c-0.817,1.257-1.16,2.731-1.474,3.573c0.462,0.975,1.403-0.729,2.247-0.38
				c-3.127,5.062-5.21,10.483-5.833,13.808c-1.222,1.625-1.777,0.679-0.838-1.498c-2.818,6.537-5.906,13.499-8.581,19.729
				c2.883-3.57-2.348,7.162-0.162,4.79c1.541-3.273,3.634-5.771,3.514-3.693c-0.889,2.056-0.561-0.294-1.183,0.471
				c-0.278,2.939-2.748,3.734-2.488,6.771c1.69-6.185-1.237-1.761-1.907-3.246c-0.951,4.625-0.714-0.461-2.201,3.931
				c-0.987,4.838-2.591,10.264-4.041,15.337c-3.171,5.857-5.324,15.789-7.082,21.399c-1.482,2.764-2.057,0.384-3.287,3.501
				c-1.174,3.75,2.193-2.354-0.131,3.007l-0.07-0.613c-0.256,1.768-4.083,9.894-2.869,12.092l-0.762-2.133
				c-0.453,0.997-0.459,2.05-0.593,2.95c-0.442-0.095-1.216,0.98-0.958-0.79c-1.988,3.127-2.211,7.203-3.391,10.925l1.563-2.126
				c-1.459,6.561-3.765,10.514-5.625,16.723l-0.681-0.457l-0.907,3.772c-0.397-1.152-2.102,1.974-2.212,4.106
				c0.552-3.36,1.154-6.682,1.648-10.031c1.359-2.457-0.095,3.183,1.223,1.811c1.137-1.167,2.9-6.895,2.493-8.055
				c-0.837,2.132-0.706,2.29-1.02,4.066c-1.295,0.341-0.112-2.924-0.25-4.784c-0.352,1.146-1.229,2.639-0.982,2.999
				c0.247-2.406,0.998-4.64,2.185-8.373c-0.418,2.653,1.106-1.15,1.091-0.098c-0.829-0.607,0.059-4.251,1.839-8.761
				c2.134-2.945,2.091-8.875,4.102-14.132c0.25,2.477,0.116,5.487-0.547,8.86c1.55-3.207,1.175-3.743,2.729-6.957
				c-0.182-1.854-0.89-3.358,0.084-7.878l0.772-0.015c0.907-4.084-0.102-4.416,1.74-9.408c3.158-8.552,6.241-17.428,8.76-23.934
				l0.771,0.009c-0.212-3.921,3.639-12.476,5.027-17.47c3.907-8.016,7.071-18.094,10.313-21.618
				c3.293-7.166,6.764-13.755,11.023-20.074c4.567-5.887,9.028-13.185,19.145-15.55c-1.118,0.465-1.992,1.208-2.835,1.896
				c2.901-1.834,2.249-0.167,5.359-0.58c-4.05-1.101,5.03-1.213,7.312,0.571c6.814,5.751,10.944,14.524,13.695,20.771l-0.623,0.462
				c3.281,6.147,3.425,14.373,3.891,22.47c-0.234,0.959-0.741,2.483-0.518,4.884c1.482,4.309,1.506,6.626,2.518,13.009
				c0.186,4.684,0.174,12.226,0.04,16.913c3.283,17.11,4.006,35.217,6.646,53.282l-0.733,1.388
				c3.479,17.434,3.418,39.507,5.498,54.316l-1.584-1.33c-0.049,4.762,1.292,10.734,2.227,9.442
				c-0.042,4.78,1.692,11.758,0.74,14.866c0.131,4.854,1.161,5.863,1.697,9.865c0.283,9.71,0.661,13.302,1.785,22.371l-0.116-2.267
				c-0.413-0.968-1.042-1.003-0.929,1.271c0.721,3.362,0.751,12.531,2.185,8.982c-0.078,9.805,3.052,22.518,2.865,32.06
				c0.381-0.854,0.751,1.509,1.189,2.46c1.034,8.459,1.343,17.465,3.144,24.058c-0.019,1.367-1.154-2.004-0.644,1.426
				c0.515,1.995,0.625-0.059,1.296,2.397c1.598,6.605,2.302,13.929,3.487,20.036c0.344,1.509,0.609,3.063,1.083,4.47l0.317,1.079
				l0.158,0.539l0.079,0.27l0.02,0.067l0.01,0.033l0.002,0.009c2.398-0.358-20.875,3.167-11.022,1.669l0.002-0.019l0.017-0.152
				l0.253-2.422c0.366-3.21,0.497-6.386,0.527-9.46c-0.567-21.892-3.356-44.889-6.387-66.229l0.381,0.194
				c-2.306-6.972-0.885-16.99-3.529-22.531c0.124-1.743-0.547-6.566,0.257-5.365c-1.566-5.694-0.639-16.275-2.087-24.69
				c-0.003,0.777,0.083,1.226,0.267,2.12c0.453-8.558-0.607-16.162,0.728-25.222c0.085,0.931,0.053,2.612,0.41,2.904
				c0.884-3.433-0.857-8.433,1.085-10.17c0.207-2.001-0.687-1.53-0.774-0.292c2.967-19.82,7.411-40.63,19.579-59.484
				c5.746-6.28,7.293-5.469,7.149-5.104c0.377,0.642-1.038,0.505,5.743-3.14c1.288-0.124,0.774-0.86,1.051-0.6
				c6.721-1.627,9.774,3.051,12.697,4.629c-0.368-1.883,2.14,1.381,2.691,1.076c5.526,8.836,4.552,10.854,8.134,17.308l-0.708-0.316
				c4.424,7.342,6.121,17.069,9.83,22.75c15.555,42.313,27.562,84.748,34.369,128.687c1.742,10.132,3.982,20.854,6.218,31.388
				c1.145,5.278,2.2,10.632,3.223,16.015l0.778,4.026l0.024,0.126l0.007,0.031c-6.608,1.385,14.799-3.055-14.813,3.112l-0.014-0.063
				l-0.055-0.257l-0.109-0.514l-0.218-1.027l-0.436-2.056c-0.57-2.74-1.182-5.48-1.709-8.228
				c-3.763-22.022-4.566-44.228-3.741-66.483c1.58-10.402,1.633-11.178,1.396-22.573c0.216,0.472,0.249,1.181,0.492,0.428
				c-1.16-0.601,0.17-8.022-0.886-9.167c0.945-16.444,1.775-31.832,5.334-48.973c-0.436,2.738,0.275,4.273,0.81,1.056l0.039-3.508
				l0.456-0.472c0.352-2.229,0.365-4.777-0.549-2.597c2.472-10.793,6.34-21.691,13.286-31.454c3.316-4.746,7.559-9.56,13.803-13.129
				c3.226-1.658,7.481-3.23,12.434-2.379c4.903,0.883,8.486,3.814,10.824,6.506c8.576,11.23,9.732,21.884,12.104,32.454
				c1.905,10.559,3.051,21.013,4.128,31.395c0.192,10.222,2.221,23.071,4.184,33.863c2.954,31.12,4.256,60.557,18.857,87.694
				C480.893,441.754,475.81,439.96,470.653,427.77z"/>
			<path fill="#202020" d="M183.399,282.419c-0.353-0.032-0.861,0.006-1.374,0.049l-0.192,0.017l-0.096,0.008l-0.024,0.002h-0.001
				c1.659,1.89-2.262-2.574-1.858-2.115l0.002-0.002l0.003-0.004l0.007-0.009l0.025-0.036l0.204-0.28l0.383-0.489
				c0.479-0.555,0.802-0.63,0.653,0.881C181.346,282.889,183.65,281.341,183.399,282.419z"/>
			<path fill="#202020" d="M216.265,190.825c-0.131-0.172,0.666-1.211,0.852-1.465c-0.347,1.133-0.21,2.313-0.78,3.09
				C216.659,191.323,216.335,191.408,216.265,190.825z"/>
			<path fill="#202020" d="M225.648,168.039c0.319,0.555-1.428,5.536-2.526,8.441C223.913,173.655,224.765,170.844,225.648,168.039z
				"/>
			<path fill="#202020" d="M237.868,148.753c1.365-1.427,1.299-0.843-0.03,1.366C237.5,150.14,237.815,149.337,237.868,148.753z"/>
			<path fill="#202020" d="M237.654,146.775c0.929-1.627,1.729-2.201,2.452-2.805C239.672,143.767,238.065,147.74,237.654,146.775z"
				/>
			<path fill="#202020" d="M263.88,134.937c0.55,0.814,1.927,2.771,1.856,3.869C265.602,137.616,262.864,134.545,263.88,134.937z"/>
			<path fill="#202020" d="M271.073,154.8c0.071,0.722,0.021,1.03,0.287,1.838c-0.04,1.352-0.626,0.019-0.838-1.075L271.073,154.8z"
				/>
			<polygon fill="#202020" points="303.186,344.71 303.64,347.199 303.091,346.876 			"/>
			<path fill="#202020" d="M356.627,297.392c1.135,2.282,0.107,1.812,0.167,2.237C356.001,297.489,357.685,300.225,356.627,297.392z
				"/>
			<polygon fill="#202020" points="383.883,394.521 383.747,393.76 384.851,393.831 			"/>
		</g>
	</g>
</g>
<g>
	<g>
		<g>
			<path fill="#202020" d="M361.543,90.222c2.827,4.031-0.426-2.959,2.034,2.542C362.768,92.362,362.317,91.61,361.543,90.222z"/>
			<path fill="#202020" d="M375.766,84.497c18.411-2.283,42.622,2.117,61.67,8.495c2.23,0.811-1.123,1.099,3.829,2.963
				c18.536,6.621,43.358,25.402,62.381,39.492l-1.425-0.451c3.545,2.801,8.958,4.665,12.729,7.631
				c-0.136,0.249-1.483-0.557-0.805,0.4c1.46,0.014,7.324,4.623,9.286,5.375c1.321,1.394,0.775,1.829,2.505,3.584l2.777,0.856
				c7.505,2.756,14.497,11.479,23.003,17.505c-0.521-0.173-1.398-0.737-0.936-0.018c13.442,9.998,27.76,25.539,38.663,40.822
				c-0.719-0.418-1.63-0.623-1.316,0.479c1.455,0.124,4.636,4.969,7.494,9.131c0.256,2.441,5.004,7.116,7.124,12.706l-0.41-0.367
				c2.755,3.558,2.018,6.188,4.652,8.936c0.143,0.946,0.211,1.916,0.245,2.894c2.019,1.302,1.364,6.229,3.261,9.381l0.25-0.201
				c1.406,3.075,1.183,5.029,2.369,7.95l-0.073,0.334c2.485,6.956,2.756,11.329,3.85,10.846c-0.196,2.729-2.333-6.774-2.536-2.504
				c7.57,22.991,11.709,47.909,12.566,72.303c-0.308,2.782-0.451,4.547-0.892,5.175c0.237,2.427,0.335,9.154,0.753,11.381
				c0.004-0.82-0.644,1.557-0.744,2.842c-0.56,4.395,1.086,4.905,0.18,9.738c-0.153-1.959-0.475-2.642-0.953-2.021
				c0.658,4.2-0.057,9.725-0.45,14.632c-0.098-0.784-0.066-1.974-0.447-1.84c0.452,5.494-1.757,9.626-1.875,14.376l-0.345-1.854
				c-2.311,7.23,0.911,2.47-0.985,8.771c0.147-1.586-0.23-1.103-0.431-1.438c-0.06,6.275-3.405,15.663-5.195,21.523
				c0.037-0.377-0.168-0.346-0.168-0.346c-2.053,6.356-5.319,12.567-8.39,19.233c-1.561,2.188-1.001-1.539-4.206,4.703
				c1.438,0.561-6.155,10.245-2.552,7.656c-3.429,5.026-9.928,12.112-12.331,15.347c1.46-2.325-3.2,1.06,0.103-2.679l-3.156,2.218
				c-0.025-0.775,2.753-2.703,1.431-2.287c-1.671,1.807-6.053,7.621-7.964,8.852c-2.775,3.728-4.802,7.879-10.659,12.681
				c2.421-2.641-2.475,0.115-0.759-1.576c-2.11,2.933-4.471,5.623-6.862,8.35c-2.018,1.512-1.046-0.547-3.812,1.847
				c0.345,0.182-0.809,1.31-1.608,2.105c-0.9,0.348-8.722,5.886-10.36,5.225c-1.197,0.15,3.376-2.311,0.763-1.284
				c-4.021,2.254-3.998,2.725-8.05,4.971l-0.162-0.111c-2.706,1.388-7.832,4.463-4.488,3.734c1.945-0.888-1.082-0.359,1.94-1.38
				c-1.607,1.597-6.385,4.177-10.617,6.132c1.379-0.811,1.04-1.095,1.465-1.693c-5.297,3.41-11.269,6.416-17.744,9.104
				c0.115,0.624,2.064-1.962,3.142-2.001c-8.645,2.33-17.098,7.249-24.652,7.979c1.148-0.42,0.869,0.688,0.74,0.541
				c-4.192,1.044-4.227,0.114-6.852,1.163c-0.399-0.419-3.365,1.083-6.16,1.836c-1.372,0.703-0.791-0.088,1.646-0.696
				c-3.782,1.395-19.434,5.646-28.799,6.043c0.237,0.3-5.467,2.168-7.609,2.354l0.727-0.911c-2.003-0.267-7.114,0.882-7.549,0.224
				c-4.4,1.619,17.336-2.988,11.304-1.486c-1.66-0.372-8.366,2.401-7.188,1.127c-4.253,0.489-8.3,1.984-12.463,1.48
				c1.195,0.039,3.359-1.415-0.078-1.08c-6.062,0.633-1.691,0.531-6.606,1.198c-1.023,0.184-2.045,0.414-3.072,0.559
				c-0.152,0.81-5.459,0.148-3.142,0.937c-0.781-0.624-8.86,0.825-8.279-0.532l0.813-1.087c-2.621,0.201-4.277,1.191-6.34,1.702
				c-0.352-0.09-1.048-0.29-0.917-0.461c-0.406,1.572-6.297,0.045-9.44,1.157c-5.535-0.576-14.088-0.351-16.648-1.545
				c-4.274,0.328-8.196,0.6-13.01-0.148c0.979-0.073,2.298-0.014,2.599-0.335c-2.999-0.713-3.778-0.352-6.584-0.315
				c0.639-0.127-5.968-1.602-9.253-2.531c-4.243,0.005-2.917,1.023-3.406,1.499c-3.601-2.157-12.018-0.613-16.554-2.995
				c1.49,0.047,6.211,0.328,2.813-0.687c-3.504-2.286-7.893-0.109-13.834-2.247l1.226,1.607c-2.55-1.391-9.18-1.188-8.246-2.392
				c-2.144-0.061-7.042-2.248-6.691-0.838c-9.731-3.568-24.169-6.666-29.265-10.963c-1.45-0.289-4.813-1.72-4.332-0.85
				c2.047,1.487,3.369,0.659,4.059,1.421c-1.25-0.405-1.635-0.169-1.828-0.051c-2.891-1.341-5.206-2.264-2.024-2.26
				c-6.349-3.119-7.578-0.503-15.821-4.199c0.574-0.333,0.016-0.781-2.452-1.714l-4.971-1.081c-5.31-2.435-2.579-2.396-2.363-3.257
				c-2.894-1.14-6.333-2.753-7.907-2.732l-2.959-2.582c2.145,1.915-2.538-0.625-3.926-1.119l1.402,0.459
				c-0.339-0.599-3.663-2.002-5.349-2.723c0.14,0.691,3.329,2.544,5.056,3.591c-1.596-0.36-3.78-1.558-5.889-2.098
				c1.017-0.438-4.265-2.843-6.358-4.203c-2.397-1.556-3.201-0.885-3.916-1.316c0.16-0.434-4.036-2.343-1.769-1.81
				c0.923,0.347,1.722,1.47,3.33,1.904c-1.471-1.224-0.9-1.764-4.569-3.22c-2.716-1.184-0.25,1.893-4.708-1.55
				c1.359,0.593,1.771,0.437,2.904,0.771l-4.191-3.16l-0.624,0.555c-0.489-0.546-0.037-0.347-0.251-0.604
				c-1.842-0.028-6.791-4.229-8.301-4.155c-2.203-1.495-4.303-3.601-6.179-5.32l0.426,0.25c-2.133-2.31-5.521-4.628-7.909-5.851
				l0.22-0.049c-1.237-1.159-4.252-3.789-6.159-4.886c-2.708-3.381,0.95-3.062-3.049-5.705c-2.978-3.1-5.732-3.914-4.906-2.295
				c-4.999-5.99-11.636-12.216-14.664-18.994c-0.912-0.746-0.672-0.043-2.162-1.858c-6.074-9.742-13.077-20.79-14.94-29.884
				c1.549,2.917,0.826-0.105,1.222-0.337c-1.684-2.241-0.532-3.293-2.041-3.739c-0.573,0.515-1.002,0.392-0.069,3.468
				c-3.013-6.101-6.45-15.908-6.888-19.722c0.247,1.901-0.402,0.574-1.055-0.777c1.276,0.101-0.15-4.689-1.543-8.236l-0.813-0.322
				l0.06-2.587c-0.591-1.345-1.843-1.18-2.16-4.996c0.214-0.262,0.427-0.54,0.445-1.254c-1.353-3.699-3.667-8.92-3.76-13.268
				l0.422-3.624c-0.417-1.771-1.546-4.722-1.297-1.499c-0.566-7.309-0.863-12.002-0.298-14.372
				c-3.521-12.252-3.7-30.827-1.866-45.38l0.473,0.492c0.954-3.853-0.673-2.137,0.015-4.824c0.349,1.318,1.439-2.833,1.685,0.301
				c1.158-5.49,0.088-7.272,0.43-10.927c-0.592-0.664-0.047,2.975-0.797,2.134c-0.114-0.659,1.754-7.598,0.989-8.632
				c0.699-1.305,1.224-0.076,1.483,0.745l0.215-3.449c2.007-3.832,0.249,9.742,2.593,5.723c0.095-1.038,0.306-2.054,0.456-3.082
				c1.637-2.695-0.412,8.279,1.493,0.72c0.196-3.393-0.68-6.563-1.767-3.697c1.239-6.99-1.867-3.792,0.152-11.217
				c1.122-1.876-1.403,5.994-0.193,4.76c1.725-3.288,1.361-7.118,2.458-10.163c-1.262,3.357-1.577,0.145-1.103-2.141
				c1.616-3.603,0.211,2.705,1.931-2.561c-0.316-1.036,0.743-6.059-0.95-1.958c-0.722-2.222,2.019-5.588,2.044-8.677
				c1.5-1.361,0.247,6.051,2.685,0.532c-1.207,0.597,1.28-7.415-1.077-4.876c1.045-2.137,1.816-2.123,1.774-0.314
				c1.656-2.973,1.21-8.272,3.32-8.673l-0.478-1.418c0.666-0.884,1.422-2.214,2.51-3.646c1.075-2.763,2.323-9.402,3.569-8.61
				c0.196-0.945,2.896-7.199,0.969-5.158c-2.212,3.679-1.181,4.78-3.322,6.465c2.127-2.375,2.168-5.72,2.795-8.125l0.667-0.155
				c0.348-1.438,1.833-4.469,1.642-5.554c-0.161,1.161,0.422,0.772,1.008-0.236l-0.148-1.75c2.092-5.595,1.906-0.679,4.127-6.024
				l-1.25,4.261c0.269-0.939,1.794-2.394,2.751-5c-0.235-1.298-0.211-3.529-0.323-4.621c1.154-3.09,1.43-0.93,2.155-4.176
				l-1.042,4.195c-0.034,0.692,2.351-2.001,4.359-5.859c1.016-2.597,2.138-6.935-0.34-3.252c1.031-1.947,2.922-4.42,2.582-2.623
				c2.152-4.494-1.062,0.174,0.612-3.819c1.301-1.296,4.695-5.674,7.06-8.081l-1.198,4.488l1.537-2.524
				c-1.09,3.805,1.671-1.255,1.489,1.16c1.159-1.644,2.174-3.876,2.975-5.677c-4.688,4.036,1.603-6.86-0.603-6.295
				c4.354-7.026,5.993-1.998,9.126-10.293c-1.176,0.867,0.306-3.096-2.459,1.321c3.217-3.973,0.865-3.753,5.195-8.075
				c-2.362,3.859,4.309-2.651,0.921,2.912c-0.138-0.664-2.561,2.546-3.063,3.401c1.792-1.251,0.994,1.321,4.233-2.702
				c1.894-2.527,4.725-5.811,3.689-5.887c-0.771-0.512-3.089,3.742-2.458,1.593c3.957-5.006,5.722-4.796,6.386-7.812
				c-2.713,2.986-4.032,3.146-4.46,2.653c0.985-1.234,1.918-2.516,2.958-3.713l-0.207,1.071c5.671-5.068,0.715-2.44,6.21-7.413
				l3.369-1.446c-0.684,1.851-8.105,6.999-5.964,7.302c3.423-3.261,3.969-5.009,7.655-7.623c-0.653,0.767-1.667,1.683-2.294,2.457
				c1.371-1.059,3.934-0.625,8.375-5.8c2.406-2.577,0.357-1.047,0.034-1.595c5.99-4.767,7.58-6.557,11.75-9.279
				c-0.268,1.508,7.615-4.349,3.512-0.531c-2.576,0.551-11.859,6.779-13.206,9.448c3.064-0.544-4.863,3.485-5.113,5.71
				c4.7-3.8,5.363-2.458,6.682-2.316c1.367-0.923,2.418-2.19,3.13-2.893c0.056-1.132-1.689,0.165-2.331-0.489
				c5.552-3.811,10.822-7.602,13.725-10.127c2.205-0.711,1.981,0.414-0.308,1.768c6.711-4.117,14.992-7.727,22.209-9.51
				c-5.063,0.098,7.865-2.841,4.357-2.977c-3.933,0.874-7.552,0.987-5.626-0.315c2.434-0.684,0.112,0.621,1.212,0.592
				c2.833-1.719,5.126-0.291,7.779-2.382c-6.777,2.548-0.83,2.081-1.772,3.543c4.777-2.113,0.018,0.824,4.929-0.647
				c4.76-2.064,10.743-4.251,16.244-5.933c7.235-0.822,17.755-4.359,24.103-5.646c3.431-0.094,1.43,1.59,5.055,1.111
				c4.219-0.788-3.384-0.781,2.979-1.342l-0.561,0.358c1.844-0.713,11.621-1.024,13.256-3.052l-1.766,1.634
				c1.191-0.05,2.237-0.5,3.196-0.756c0.106,0.44,1.52,0.683-0.353,1.203c3.984,0.471,8.124-1.085,12.389-1.339l-2.792-0.643
				c7.279-1.107,12.242-0.448,19.374,0.005L344.4,80.55c1.415,0.017,2.844-0.015,4.269,0.143c-1.137,0.576,2.518,1.712,4.811,1.815
				c-3.683-0.548-7.355-0.304-10.926-0.043c-2.932-0.72,3.329-0.665,1.551-1.596c-1.534-0.969-8.14-0.956-9.171-0.144
				c2.487,0.136,2.601-0.085,4.552-0.282c0.764,1.112-2.996,0.976-4.835,1.712c1.29-0.028,3.104,0.333,3.391-0.014
				c-2.538,0.484-5.056,0.55-9.256,0.789c2.825-0.61-1.585-0.593-0.527-0.975c-0.29,0.993-4.266,1.5-9.482,1.816
				c-3.851-0.729-9.634,1.968-15.633,2.71c2.25-1.399,5.233-2.726,8.851-3.627c-3.871,0.034-4.206,0.673-8.084,0.788
				c-1.702,1.08-2.812,2.36-7.599,3.781l-0.409-0.665c-4.351,1.264-4.123,2.313-9.763,3.36c-9.671,1.8-19.472,4.428-26.724,6.4
				l-0.469-0.622c-3.593,2.63-13.21,4.504-18.312,6.963c-9.084,2.27-18.209,9.002-22.836,10.546
				c-13.774,9.466-24.037,19.958-35.111,33.184l1.007-2.944c-1.348,2.919-1.746,1.193-3.548,3.683
				c2.835-2.243-1.735,4.023-2.442,6.147c-5.249,5.73-9.83,14.663-12.553,20.953l-0.768-0.131
				c-2.253,6.663-7.143,13.388-11.048,21.141c-0.698,0.765-1.999,1.889-2.985,4.285c-0.871,4.767-1.93,6.984-3.912,13.624
				c-1.928,4.643-5.176,12.15-7.387,16.803c-5.318,18.355-11.565,36.324-13.613,55.844l-1.079,1.255
				c-1.123,18.85-2.921,42.005,0.206,57.91l-1.646-1.376c0.081,5.1,1.894,11.385,2.773,9.93c0.297,5.087,2.959,12.235,2.536,15.622
				c0.833,5.117,2.226,5.97,3.465,10.07c2.301,10.088,3.705,13.71,7.304,22.783l-0.735-2.312c-0.666-0.894-1.284-0.774-0.546,1.555
				c1.609,3.298,4.657,12.637,4.871,8.604c3.052,9.973,10.914,21.244,15.743,29.969c-0.089-0.967,1.42,1.048,2.277,1.718
				c5.195,7.258,10.888,14.916,16.556,19.402c0.89,1.137-2.258-0.961,0.425,1.56c1.734,1.334,0.463-0.424,2.622,1.189
				c11.197,9.224,22.522,19.258,34.342,25.777c21.147,11.104,44.417,20.685,66.483,27.967l-0.362,0.25
				c7.813,1.295,16.766,6.849,23.333,6.315c1.665,0.8,6.68,1.831,5.224,2.163c6.159,0.419,16.634,4.483,25.65,4.493
				c-0.8-0.148-1.277-0.146-2.234-0.133c8.772,2.099,16.768,2.047,26.156,3.468c-0.971,0.074-2.729,0.043-3.045,0.371
				c3.62,0.945,8.774-0.741,10.672,1.02c2.108,0.087,1.549-0.777,0.26-0.79c20.731,1.826,43.049,0.462,64.414-2.391
				c15.479-0.811,1.315,2.881,13.254-0.101c1.041,0.175,0.623-0.747,0.836-0.424c4.602-1.134,7.608,0.769,10.688-0.745
				c-1.518-0.775,2.047-0.975,2.025-1.614c9.439-1.023,11.479-0.783,18.598-3.179l-0.412,0.678
				c8.113-3.663,18.085-5.727,24.441-9.866c44.959-15.725,84.3-44.78,102.867-86.429c18.76-41.208,17.839-88.479,9.892-134.292
				c-0.898-11.048-1.073-11.922-4.761-23.475c0.356,0.416,0.615,1.129,0.606,0.289c-1.303-0.263-2.387-8.203-3.875-8.958
				c-4.834-16.873-10.988-30.923-20.565-45.745c1.563,2.28,3.121,2.964,1.31,0.19l-2.448-2.517l-0.047-0.649
				c-1.469-1.748-3.372-3.406-2.331-1.298c-25.89-35.573-61.658-63.172-99.346-86.948c-8.761-5.977-21.784-14.272-31.514-19.662
				c-27.171-19.093-59.024-20.459-93.486-19.535C356.834,88.136,361.389,84.962,375.766,84.497z"/>
			<path fill="#202020" d="M356.795,86.583c-0.623-1.093-4.209-2.752-1.018-2.347C355.98,84.841,357.415,86.27,356.795,86.583z"/>
			<path fill="#202020" d="M252.249,92.114c-0.085,0.209-1.538,0.209-1.893,0.216c1.256-0.422,2.307-1.254,3.409-1.262
				C252.482,91.493,252.762,91.705,252.249,92.114z"/>
			<path fill="#202020" d="M225.88,101.359c0.22-0.749,5.207-3.584,8.996-5.135C231.432,98.008,228.813,99.501,225.88,101.359z"/>
			<path fill="#202020" d="M202.343,113.582c-2.053,1.1-1.75,0.475,0.734-1.399C203.433,112.276,202.673,112.977,202.343,113.582z"
				/>
			<path fill="#202020" d="M201.614,115.698c-1.689,1.391-2.767,1.802-3.753,2.288C198.168,118.239,201.646,114.563,201.614,115.698
				z"/>
			<path fill="#202020" d="M162.801,157.245c-0.695,1.175-1.913,3.892-3.082,4.659C160.818,160.919,162.722,155.937,162.801,157.245
				z"/>
			<path fill="#202020" d="M150.335,180.358c-0.419,0.732-0.663,0.996-0.985,1.931c-0.928,1.27-0.516-0.357,0.044-1.543
				L150.335,180.358z"/>
			<polygon fill="#202020" points="318.497,538.027 315.695,537.735 316.2,537.312 			"/>
			<path fill="#202020" d="M521.603,519.689c2.455-1.384,1.995-0.301,2.462-0.412C521.742,520.309,524.672,518.322,521.603,519.689z
				"/>
			<polygon fill="#202020" points="604.637,447.646 604.233,448.396 603.445,447.594 			"/>
		</g>
	</g>
</g>
</svg>
