<?xml version="1.0" encoding="utf-8"?>
<!-- Generator: Adobe Illustrator 14.0.0, SVG Export Plug-In . SVG Version: 6.00 Build 43363)  -->
<!DOCTYPE svg PUBLIC "-//W3C//DTD SVG 1.1//EN" "http://www.w3.org/Graphics/SVG/1.1/DTD/svg11.dtd">
<svg version="1.1" id="Capa_1" xmlns="http://www.w3.org/2000/svg" xmlns:xlink="http://www.w3.org/1999/xlink" x="0px" y="0px"
	 width="800px" height="600px" viewBox="0 0 800 600" enable-background="new 0 0 800 600" xml:space="preserve">
<circle stroke="#000000" stroke-width="0.5" stroke-linecap="round" stroke-linejoin="round" cx="386.43" cy="300" r="292.861"/>
<g id="XMLID_1_">
	<g>
		<path fill="#FFFFFF" d="M515.25,210.17c-23.47,7.14-51.67,12.6-70,33c-14.59,16.23-9.55,45.43-12.61,65.84
			c-7.14,53.061-3.06,101.021-1.02,154.08c2.03,41.65,11.14,83.3,13.229,123.94c-18.88,3.819-38.409,5.83-58.419,5.83
			c-33.06,0-64.85-5.48-94.49-15.58c36.48-54.91,56.75-111.88,62.86-178.971c2-24.979,15.73-174.18-35.41-161.26l-0.31-1.2
			c5.02-63.09-191.97-21.98-219.11,4.78l-0.07-0.06c40.8-47.66,112.86-77.11,169.73-101.51c52.96-22.43,106.95-37.71,164-47.91
			c46.86-7.13,99.82-16.31,147.7-8.15l0.79-0.88c41.05,36.89,71.62,85.22,86.689,139.97l-0.63,0.18c0,0-0.949-0.48-2.06-0.98
			l0.02-0.05c-1.02-1.02-4.08-2.04-6.12-2.04l-0.319,0.85C611.91,201.83,565.08,195.94,515.25,210.17z"/>
		<path d="M515.25,210.17c49.83-14.23,96.66-8.34,144.45,9.88l0.319-0.85c2.04,0,5.101,1.02,6.12,2.04l-0.02,0.05
			c1.11,0.5,2.06,0.98,2.06,0.98l0.63-0.18c6.83,24.81,10.48,50.93,10.48,77.91c0,141.73-100.69,259.95-234.44,287.03
			c-2.09-40.641-11.199-82.29-13.229-123.94c-2.04-53.06-6.12-101.02,1.02-154.08c3.061-20.41-1.979-49.61,12.61-65.84
			C463.58,222.77,491.78,217.31,515.25,210.17z"/>
		<path d="M582.12,82.12L581.33,83c-47.88-8.16-100.84,1.02-147.7,8.15c-57.05,10.2-111.04,25.48-164,47.91
			c-56.87,24.4-128.93,53.85-169.73,101.51c-0.13,0.14-0.26,0.29-0.38,0.43C126.82,107.54,244.9,7.14,386.43,7.14
			C461.65,7.14,530.26,35.5,582.12,82.12z"/>
		<path d="M319.39,237.05c51.14-12.92,37.41,136.28,35.41,161.26c-6.11,67.091-26.38,124.061-62.86,178.971
			C176.56,537.97,93.57,428.68,93.57,300c0-20.21,2.05-39.94,5.95-59c0.12-0.14,0.25-0.29,0.38-0.43l0.07,0.06
			c27.14-26.76,224.13-67.87,219.11-4.78L319.39,237.05z"/>
	</g>
	<g>
		<path fill="none" stroke="#000000" d="M668.81,222.09c6.83,24.81,10.48,50.93,10.48,77.91c0,141.73-100.69,259.95-234.44,287.03
			c-18.88,3.819-38.409,5.83-58.419,5.83c-33.06,0-64.85-5.48-94.49-15.58C176.56,537.97,93.57,428.68,93.57,300
			c0-20.21,2.05-39.94,5.95-59C126.82,107.54,244.9,7.14,386.43,7.14c75.22,0,143.83,28.36,195.69,74.98
			C623.17,119.01,653.74,167.34,668.81,222.09z"/>
		<path fill="none" stroke="#000000" d="M99.52,241c0.12-0.14,0.25-0.29,0.38-0.43c40.8-47.66,112.86-77.11,169.73-101.51
			c52.96-22.43,106.95-37.71,164-47.91c46.86-7.13,99.82-16.31,147.7-8.15"/>
		<path fill="none" stroke="#000000" d="M99.97,240.63c27.14-26.76,224.13-67.87,219.11-4.78"/>
		<path fill="none" stroke="#000000" d="M316.02,238.1c1.15-0.43,2.28-0.78,3.37-1.05c51.14-12.92,37.41,136.28,35.41,161.26
			c-6.11,67.091-26.38,124.061-62.86,178.971c-0.13,0.21-0.27,0.41-0.41,0.62"/>
		<path fill="none" stroke="#000000" d="M444.88,587.58c-0.01-0.18-0.02-0.37-0.03-0.55c-2.09-40.641-11.199-82.29-13.229-123.94
			c-2.04-53.06-6.12-101.02,1.02-154.08c3.061-20.41-1.979-49.61,12.61-65.84c18.33-20.4,46.53-25.86,70-33
			c49.83-14.23,96.66-8.34,144.45,9.88c0.16,0.05,0.33,0.12,0.49,0.18"/>
		<path fill="none" stroke="#000000" d="M660.02,219.2c2.04,0,5.101,1.02,6.12,2.04"/>
		<path fill="none" stroke="#000000" d="M663.08,220.22c0.53,0,1.87,0.55,3.04,1.07c1.11,0.5,2.06,0.98,2.06,0.98"/>
	</g>
</g>
</svg>
